<mxfile host="Electron" modified="2023-12-29T12:02:51.441Z" agent="Mozilla/5.0 (Windows NT 10.0; Win64; x64) AppleWebKit/537.36 (KHTML, like Gecko) draw.io/22.1.11 Chrome/114.0.5735.289 Electron/25.9.8 Safari/537.36" etag="XfNKcOt1uifN9yYCg8q6" version="22.1.11" type="device">
  <diagram name="Page-1" id="4TuvBg7SgtVeHI91bdSs">
    <mxGraphModel dx="918" dy="584" grid="1" gridSize="10" guides="1" tooltips="1" connect="1" arrows="1" fold="1" page="1" pageScale="1" pageWidth="850" pageHeight="1100" math="0" shadow="0">
      <root>
        <mxCell id="0" />
        <mxCell id="1" parent="0" />
        <mxCell id="8SS_QkGXYisFhr5MhX2D-28" style="edgeStyle=orthogonalEdgeStyle;rounded=0;orthogonalLoop=1;jettySize=auto;html=1;" parent="1" edge="1">
          <mxGeometry relative="1" as="geometry">
            <mxPoint x="482.9000000000001" y="660" as="targetPoint" />
          </mxGeometry>
        </mxCell>
        <mxCell id="8SS_QkGXYisFhr5MhX2D-19" value="" style="edgeStyle=orthogonalEdgeStyle;rounded=0;orthogonalLoop=1;jettySize=auto;html=1;" parent="1" source="8SS_QkGXYisFhr5MhX2D-17" target="8SS_QkGXYisFhr5MhX2D-36" edge="1">
          <mxGeometry relative="1" as="geometry" />
        </mxCell>
        <mxCell id="8SS_QkGXYisFhr5MhX2D-17" value="Function Schema" style="dashed=0;outlineConnect=0;html=1;align=center;labelPosition=center;verticalLabelPosition=top;verticalAlign=bottom;shape=mxgraph.weblogos.json_2" parent="1" vertex="1">
          <mxGeometry x="185" y="421" width="80" height="25.2" as="geometry" />
        </mxCell>
        <mxCell id="8SS_QkGXYisFhr5MhX2D-25" style="edgeStyle=orthogonalEdgeStyle;rounded=0;orthogonalLoop=1;jettySize=auto;html=1;" parent="1" edge="1">
          <mxGeometry relative="1" as="geometry">
            <mxPoint x="482.9000000000001" y="568" as="sourcePoint" />
          </mxGeometry>
        </mxCell>
        <mxCell id="GTzW13PCpok3m3NTXm2x-17" style="edgeStyle=orthogonalEdgeStyle;rounded=0;orthogonalLoop=1;jettySize=auto;html=1;" parent="1" source="8SS_QkGXYisFhr5MhX2D-36" target="GTzW13PCpok3m3NTXm2x-5" edge="1">
          <mxGeometry relative="1" as="geometry" />
        </mxCell>
        <mxCell id="8SS_QkGXYisFhr5MhX2D-36" value="OpenAI" style="shape=image;verticalLabelPosition=bottom;labelBackgroundColor=default;verticalAlign=top;imageAspect=0;image=data:image/webp,UklGRiicAABXRUJQVlA4TBycAAAv08P0EFWP4rZtHHv/uVOUXPlGhAK3bZQxHt8n9Al0hZRtDGWEkDFAMgQwzoQwwpkSJChtH3cSYJk2Sd2Bhx5qWMQD/ot2UFr3/18v99H+/7927e3e1xUYOHPO9/3+fo55i0JExIhCxELEiIWIwkJEYURERETEiMKIiIhCxIiF3BwRMeKIiBG5eUS5EQsRha8oLG9EIWJEISKicEQZFyIKywyFuTmisDAiYkRhoRAxohCxEBFRGLEQERExoowRc/MRCyOWd8QNERERI34yohBRGLFQiIgo94iFiMLCiIgRCxERhRERERGFEQsjyo2IiCiMiIiIWBixEBERMaIQUViIWDiiEHFDIaIQERExYuEjIhYiCiMKI8pdKBxRbkTEiIURCxERhREREYWFEYURZYwYURhRiIgoHBEREbEwImJ5C8t7RETEQmHEwoiFQsQN35sX2i7vRowQCCT5e06wgMGkbfz/47YbSAAA0LATvRl3s63/Z9u72bZ5y+Pl/mu5hlzrcu9nd1mX+VuuOXfLzYRE21bV5hxcSa3BWVeqfJ6IE675/812Y9vKP5JjzTk11c051fd93/d93/eN1Xn60ZQs6/3/3/G+wyeFc+69ZbT4QZXE8Y2iUihkkwpAREabF7KIU7CRUzCqDE4ThCqFiYw2r01stPhGRk5BRUopGCmF298IvNFNwWjxjVxkm180kFNQESsF384pFKoMNj0ZTLRSeG9XSsFkKQUjp+Ai5RQGMhtw+1xUGWxUKRg5BRUppWA00OXzdiVU3MhopbAUwUJrp1DIKfh2wykUMlpcyCJLggAADBHdW68ys2WPRCiSERpCwy4pJBGOolIIUSGFzJBSpA4HAgC00P3/haedijRkFC30nxZsW3FbaSO3ZHlQxy92ZAkud+KH1aCABCANyAPKgAagD5gDDoAPEAYkAtlAOVANLAbWAJuBPcAxgAGuAw8AEfAGeA98AL4AHPAP+A/0A+PAlCcCE8OLgjbVJiK2+esDD3vfqtnuNlYLWLKvY419+UYrCqnWsCyv0OVmc56AJCADKJYBhoA14AWEA2lAGVAPrAC2AAg4DVwbCrwCuoBPmwJ+BwEDwDAwagUmpUHVrb4pUUElm8rtlDV02oN4CbCy3bEeN2/AodLLIjMc5rM/IYAsgDcEbABfIA4oBihg3e6AM8At4AXQDXwH/gKDvro0MnVf/5jEgNbvPmJ3g579REA84PfiDV852mG++hsCqAJGgPM8IK8d0AwIgcvAswCgrwgY0aVJqIcXlQZUOd6Vrtdu7jzApUOOGWkv7mhAHbBYEZAMzALWXmlaVi7wJ0WXJqqekgl8zpoGoNnA7EtdDbAMi3abcwBAXjrgWh2YXgs49O6xm4qySoXQGrUpoP3dNzd7Q9Xvlp5nM7t8wQeUOgAeQCpQt+RWwPOkIrtUJO1FbY52K2BruxaAZ4caDnMIgHgGoAXYAzHBwMZbtQa+RulS8dSjgG+tbwVsCj5ZSPcMzXyxbSFg8NxAFiC4EnA/IsgqFVVrUMTarnSx755ZXGhu2FQD5IpnArnA8mZVslOkYpuSXaXZ/hrMLA7UzAMAUoAm4ASkXww48vqJ4RIBwxOrTAbghUZ3t4j9rwWRgBkQCswBdgL3gI/AkETF/NwuAP2wbm0jhfwXBXdOXAug4UHNS6wSJa0lzR8ELLtQXI5QP4FuK7sbUAC09AZ6/SVy5qf2/uD2gFuZTYz/7nRAUS/gdptwiaThbZr2upng/pU7Z3T7qU3b+Epk9a3wq/ajxfT3fy0S4LUAVgNX/cIl0ob7Pa1Wi98WzMfrXIAeQABzgZOxUbpEXd2/8cGAeZ/d0CWI8wWwEKAQaAUeA7+skgRaQ2suWF1IsujN1gbofjawADgH9IRLUhheUGd5t3EWYUtgvwsBG+7leb5UyPZeU4GMfoEC9pt+3migAjjQPEoSRn/gLYC2NDpPE6rnygBvoPZBqb6SPIanjrjdigTpuTVHGBAILDpetl0SSXv28d5/SplDdK6Z9NnAUuBGqVWSSmspcHPxZ08SlyvcYUDwYoAFflolwbTG/8fFQEiYiPzyrwEqfd+/d4XPk00r8KN3y745mlgk8m63Ay4kWiXxtCYCFz/+dDWEIdGH2hJw3A8YkyTUnguc2NKLR4vAo3HpFwJ2NQ6XhDS88Z3eu4PYO1Kn5TyqFvB0uCSnUQNrfTagpgm77/pxQBVwaaIuSaoeD1zZV4iI25P7QI8D9nZySsLqDFjV4w7kFmsACjMvdq/hkrwOv9e/HRApzrZPbwAcTrJKEmttAxxtkO4WY9uvC3jiLwmt/6yzDUgTXQfYx10IOFhhe2JrTerz3uME1uauuK8H7g6XJHd4l/4hGWKKV54HbAM67ZLs2ju987xyAXU8bnXA2XhJfENvdSKxdJzOFbIceJQvVYD5ewIWiqOsawBBvSrkrRK0j+r1wiKoyphWBqT8eqIuVYT6pia3KNNEz7/v19pekFQdBm3vWB0Ezj/0tt9uNzRfqhLz9/Tsv20TNAfkRu8PeO2UqkVnwv46C5guvwJfG1jfySpVjdZOW1tRoGApTP7CwI5cXaoe9aRPf1SaQDlpBkQC+xJ1qYrUE4H9HWuIEZKr9ymVKsrSzVVPFiHveoRKlWVoj+rJYuSdGnsjPt6Zk9/U6PjrlbxTb2+AqBrigcLPfvVSqfKcCKBuhWKBjL5vnyhVoIn1AH+B0Bi55W5Tk3SpCtWTep3OIgh62nrx+wXoUjWqBwCrAFuHAKiXDZj0T7BLVam1OTAfMNVUPt0Bck9OqTp17gmoBLRV/YnwCz0tX6pS85/23q+s2vvD7DY5RqpWg3o0UuUVQG2dN5YtVa2JSzrb1PchucsBHbpUuerzW6rsg3RHutm9nFIF6xwKlBxJRbeHBEQ8KEqqZKNGdFTJ+3CH9EqUKtrEjYU4VDDjgJrmVqmqtf74xx9I9QZFd6lp4VJ1G977cJGqtkj53eqFSlVuaL27OdTrpz6+sS5VunrjZ1epHyqc8bRwqeINnwYkFKrQo+yA3cYmSpXvxCUT3GqzcMt/bW2Vql8r8PKLVWXRFwsQ8MNRUggYda4pFtVIccsIKQyM+OVilVgCtXpvXykQ9H3pGSqwlKp2I6CpVAoGS6/XT1N75dW+e6hVCgetexobqerWLgW2Z0ohYeaCpeptZV77KroUFOpA283yVNrauDsFSYFh0J3iNDW29kStdSk01FufKE995fn2la0VGytVVpZpQM5Xe7JWXGQ5N01F0W9JphQkZp4PsFJNfQBcaqhVChOtQw8XrY5Kle+tVAoVJ9ZKV0HdenSb5pSCRWfvbjaVQ1g7Pylg9Pv6MlXTiEr9yflSyJjSo756aXqlEMjPksLGrPZpKgXA+HolUuCYubXaqmRvj5pml0JHe+/PVh87e+XgVCl8TH3YK6sMfvtOUVIAGQXsBviqoj1SILqLVQohrfcCYl2qgfLb5UphZFK7HLWw2amipEDS/5tVwVa2jhU2E0rqXerSvz+B5OAIKZz0++Rk4jO4yXApoIxa0Jb05cpbTbNLIaW995PoXu48sH1jKaycf7NAojNpf6FSYFlyv+4k58V/PVwKLcMnLyV4mDcj76VLwaU+dKSD2lW0t5QqBZipWyqkdQjvZ8qUQsyYWusjNF++OV8pyPSdfCgynw3vCdzRpTBTH/PCND5DntF1vhRqjpqbQeGC5f1LpWCzdEevTF4aLomSwk3/8xUTlzjglF0KOO0j4kib/wuvTZdCTv1ej6Jr9i4gM1YKOxt/N1UbSIt8WLYUeGZ/ciRNu9U7U5AUegbtLYyiPfacKkUKPlNOVZucTHhruxR+2usQc4/a1RbpUgCqj2mlUbKSdvUsKQjNmuGg47mz9gVSGJq6Oirut/BhiVIguqlPpmGn96/8bzOlUDRmXa9MwaZUtuYvBaP5U7uTj/RV+UrhqO+qOlAvuslz2aWA1H6wbdGuSud0XQpJ9eMBjoTjuRdJYemYAWQrtNZzoBSYvv4L06wom7tughSaNv92N8XKoQJJ86XgdNTh6FU+1TY2VQpPIxrYqFW0/GZJUoDaZme0KnSesaVEKURN/K+UujiA6OBSKUidGEynVPjJ8VKYGr8mKlUPS+tfIgWqMTuiUUrbUYyUgjVRaRGuiUaLcE2/nGd+XqQcfrY8+ixCNv1yGo0WAfsB2izm5hTYv8IiclMhTQqifnKJlEI3rSmaItVFguOl4DU+OIMelTq3VCql8E3/lRpVPm2rS5QC2MQT2WjRQNLYJCmEbdOVEs0ouf+gQApiIy5FhwYPtY6NpTB21LdrVGBKlhTIJvSkQi8fs6RQduBMGvTF1VQKZheFUKDHzOlSOHs8/HvbLP5hXTyjnysd+2vTOpVdCmitq5qEe2DvH+wrhbS+/+eVMW9A/Jf9paDW/9+m4V1fJDhTCmszH4Z1PRL33EQpsE1sj3ORc+2NC6TQNrW6hjErWiYFt1l9EWZpUym8XTQBXTo8SApwR2AbPHxYPbsIx3qqMFxbEL9fihTiptwP09PjluAYKciNCbbgucP3/hMpzM3+22jubwrwTgp0Y18Yyx2OkULdLjjur+HBpGD3r2B4Nbh5vZyiHfuSZPzqgD17lBTuRvV3YZf72FIp4C3t6saNJ8VKIW/jKbgNBV1TKehd9OWIUXYlXdSjbw6v1g4Dnz9cCnt9z1SIVUe418qUAt/MazlwolGBFPoWNMJpcIy6SMHv2l4coxz66KIfiVAG0esKl8If37MFYlNubW68NAMYOkzDhauNl2YBY3Fplrj29qSZwKfNwaRe58as5gKs50vGo5ALMLNImg0c/i9tWDAvVZoRjBiJRaQoi6RZwTG/jcN4YdTTzQvop8rBICrZT46SZgajbmdTfjr6SbODuXWR20jYt7bST+kDOlqgmyPQ317Zz467N1QkzRIO/3yHovfI1UmaKSxQ8t670o8nzRZur4Nyt2U4yG6+wL6yQKVmbLw0YxjaVaFZeDRp1rD1aEUm50rSzGGfIylxxc415Zs7yL+dQ3npmSrNHqY+SnmjUJguSc3+0Tc++IY/38FW6ynXjtzdlEy14bMysJe6Q5Hd5++7HJPNNphso5kseRZXYPMlzrXCG2rOj4ab2HZ/dRdyf73u7fTR/uv8/x26GPfQUGmv5HR/TiqzPPL5HG7P3rWXZ7FzzdSZxOUpkidC6DQIj/1QyHcSmsHABBh8Jgaf8cFn/L9nfJha9kwMumKaGMwgYJmEVgQKwGIHmYSzeKxYpap1nsVV+PemROoulaG3Pjb4tg9BIn96vwxlZcamJIFxDn9bveXSeBN/SN/Q0fzRQSF+SHRH2TM+7Bn7e4XwGf/7jA/KwYuuusWescHrVU3AYS4Qh8OYLEGmcnZt1enelrkHm+3J/tHvEKOT+5dXVKqNoe/XguGPpzOf72Xplmi+sBGJLxT4AAbDEKrPxABRfMYHYXiFCQTOh0yzBPlUYPUN0dhbraP991Dipi43UtJrcdialbRsjvXf5zUXx7nIuTEAg82gQXiF7jMxABdVeJWf7EQSJ1EFB3799r7f75BBfunUQuXkb5dQ9ijcVkf2KjleE6TKRiQW8CD2jA0z3CuA2lNQrDAQwmBpqvlez0t5cojQde5Y5ew5cxZdPz/y9bZn76JDH7MoAtBo0RDKAQXxJvHaRiBJclXh23qK+ZBgxcBDKeXY2J9PJyrjg7e7VEpda6xIvjXrel5KijDMwMFGwEkr072+epP/O//6ghrKyNwYSVGco9/QW68Lnynrs41ATMDhwDX0rDCDQTCNZmqW9eHuI/fPrcUMU8YwRqtIgrLv5+suliK7j+BwXygQQqGv+IwPwm1FwOgFUeoOvZW67/8n76cqS5Vw2uxRtOWz0f7bcndlbC82Ilk0dJ+JgdKiGo8dVJptMK+e/GOOVWMzJTXZaoiciSuTPwq5hUJ1EXoAFicr5sabuCbrV6nuHEe6T+3VGSdWVhgUqkJ9EcKKQPFLqi58nJHxT6h0kdil9SLmuq3HcWLpC4OGqkiiqMZGnEjWXR6yfUFfkqZstAiVlGTpu+MHLEllYW6lPhJHe69cF6B0IUWjbRdJSFZfXfRDwKlLUlqwwmHSytSSusZ/Ppmu31VbJavZuTc7HXH++fVWao7JBE5hoSqSK6rwx+DMbd1VKM7hJ8vFl86OVi7qZksyMtx9yr1bCIPNCkWSReh2Mi1yrIPtLsvNvz2Zcs1trONJKjLfkr7ilpQZAoUi2SJMQBA5L+qvjrHvV45rjaNUba04+pNxAANu5+3ZACwWuiLhohtX0zd1d6k4Rz/5rYjdcoXqDXtFnah4TK7xJr5jAgxCkXhR9WAarfBva7J7CriaMt0h/c1JGnI6d9f6o5ChMKAICxQmr05dz3lbbk+TlSgWDQ0oHU5C9g1/LakUzR8PXCv5lT5jfweNVQa20f4rtzvOPZamQIVRq9CwvFrx0XrRUJhRxFz6hu6rVpk9fbXyNMsQfT0rBel5qclrkxkMhMKQoirhs7wxFuV16099a9FKw7cnUvDM2SdhTK7rCluKCMCgQrv/Vl7HeulkCsP6diXpx40S53ptci1rpjvJirm3UmX19MyAjrLEi/KwFAKeDM/Y0hYIEAqDiq5HsHnzbXIOf3Lanvo1uZWEkARJPrqec6xImSYGXWFTEUEEUunfnsvo6ceVpDPswCXkq63taU6mUCZXFUVh1XQ3b88Nfz4yenrnQuWgOvku6HS1OnTYCEQoDCuqGQRSVXrwtcnoADp8uHJ85pkl8XhS6gr+aDTthUlP4QMAcSLZXSoyut9cpfiI9i/zqbfL/H3nC4eUXHRVTHaeuefvf2rxer2GcKs6LSsjOLw9c8nmDvtSHqYpREPiralXRTvbYFbwH6ELr1fM/lsrHAVOYQeFhs2wqPkxViQTZCppZUpZny+mKOdriXIVvyRjFkQEmwdPMxuBPPWdBCYQ8BkfvF5Bw0NFCJ02JZNsbiGWNUEZGlVZmU479n486duLGQSQL6rhVc4FTuGwWX43S29KjkPt5dGSvrYmlFEY+XxG++/49zv+862uru77eccH7+7o1zP88Qy2ek+5tudyYzxWBvaCA5eq1tELwkGlfig0pe9N7MlOJPXXp1zerg60ZCgBj/oTSTqG3nrahjYDB8w3uS68Oy/DmCx5bS469PWR2FUoD8YG38wlHW2vPuxvtLb7q+p0yzbaWKG0k4gvFOjIN4kgHK65OB7J5OlPuilB+P7NJOkYavcUxWwCDDri86pzIXSasj6XnYS2h2vora+DfMU+fKO3UusjMc/iYhdFIJ6YQcDAXCECsLg6uMvlqVm56QPkFpGOve9PilKjXXRD90PACO6Ys2M/GXhtsNJFPQ+7CqUysF+8YwEDIQ55piLT7w8kvamkHMMfPX1Tm4AA6SKELxSEs/iF5lS6jiJYdL2vVmtC+882EjWBgKEe4kyLTD2wWTdA+VKOtSzd8hjnIhaC8OSduqtzqN0QJQWv97yUMs8WK5LnsTr+EtdqLg55/GS+/U28uHlcc0k4xr7f3D1nBgMV5XDcnTAWL7D5rkL+I7qaCy2plKlZ7CSCJMZFnKqPxG1ZPI0PMe1dXE8nHN8UO1bLJFQxlnyhIFogKwP7YKtRcYZ6teelFNl9GJM9Q1nYMzbYSaQ5meTxqq2Z9B6mJFEuCqtNPwQUCEtzsSJZe3kMfzz0NFcZaLYy7/YVijQXETLN2rO3PHbefU9T7rceQJJwNMRi4BSGfyOLlRiB/JgucSfbg+1e7t0i2NwMHATCFMEde0pFFk+AMM90+YMSwtGRvYNpTMB3yxHO5pWBbfi9a7SV/aPf6RJX2FiAX1DjJHKg1WWxbleHM92hSQDOS7rRV29RPCHA24XYiKTQ5gaabZPKLv76qjXX7E6BV3/RZ9PU+owsFp9UZqqcKIpw9UVSFDP4Wl8YTFHqznymtpvL+fbsnbw6zQno6U7+vvujHPZe8s5MtZjLGEk2xn++i890YGHA52vOj7H+Q3Ub0+rQcV4BPvIvrAhUGdg9clgF0nTTrK69L1+ysX/00/2QSAALLfrh5iblr0NfrWXpzS3gLgqEjUBaUkkOV3i5nWaKbOurJdnoyN0OKhWwEkNDGLzm4pCAhlXP66+O8FkOvFJEcMbeapXDxreY4gVaOwBoJRtvx4ok6EWYISB5be4pZWmINumr1fStBfop7418PjJYV+F1OUzwCpfods9X1nN27I4O2gNHkWPdkowiOhX+fRF2r8UCBkf3/f/J4PzPMr0GiS2DdLJRe3H4IZAbssJa6AxriEYJ9ZTlac/cH85C3ssdgMWN8SSDV63M5MaPEPBMlVSjp1RCGUwAHmc3AYb3P9MkVQZeW/rWsgK5UkSw+QkZ7MeIAabWfeYSSTUepq7PgLcKMwQe/aUmsTLae4uPVn8UAr3X0bH+K4N7Dgg0sTFabEM1tit822UV7mKFwYIDt6ZJrsw/gHwKfaPydN+Uv01IpphW6JN3olt3XMFUKuAu/hhc7gmS7B/LOfq1pK8wFgecRDCNdhWK/J2dKs2k2ihNpBo3UhQz3DoRiCc1oX1eqp920QsC8slT1mf5q0JlYiNTuiqHb5ZUo+p0n1PBLjYiqY+c0lVjsLda45fUrA7G5Ur/Jn9nADKhmMI7kq2vvQuhM1zAXRpiUco1uQcaNWllghOiKkLodFf+WrPWUfU0wfBNtt4sMPGiaYPtnrw2AUpGztjUY4NPBs/UzmtzMgWgkYC6BOFJQ/T0aBobJ9UPDusjkejcwvL62Pf78Ngv+xutt9Z6y6W7WLqL+fLl7kLueSkX+uptoNmHOv3M0vjgnffIrZnKeR3uPnESBXa59sA5/Elf4bvE5WkWbE8mii+G3vpMjtmP/34jX8/Aa9tqvk01F0epO+RZXIZmSV6bz0XxxNM/OGjURqI2Ag7EogAsdpVTNhKxU2gInZ6P5I4xQpkon9I2dI7JFB2tVYHtu1/3VeuxJ87hJ5tm6ua18t9mgQCf8QHob64fAlb4dxYYVbz5PthVEwgUH62eaRuL/jj80XebkqnCt+Xu2u+jeGMwjQZM4TdmMFhU94z9vVM66p22eCeLUB77QoE/CtlJ5GmCVGVplxJXaIicnc95qN2ee2TQTNW89jfaeaC5boHCIsf6jcaC0lsuUTzhhpo5yKS7mA+Qv3qmu1Tqo7HI7i9GcMYgAvnrnQOMyyVst+oWrk+ZBQsUXgtlsgS5yjPbmtDRmb/3dvq+30/+zxpR7dU5/Aqs3gQYFBhMQJBlMKyo6nn2roDaVKZ2Gf/9tOXh997xmCsDe4ZmiZofg/D4nDLZxzasUGVX3/uqGQwCMDh8lqeqdOlJaL2/htp9XtbP0nZHtdfuQraTqQAicXl6wI4jiTYiEVCtUKuDe83FkalZIrjj/ccuG5B1xI74F/2QKIzJ0jZ0pX/bGv165ErfIt+cZgJF17KJxuonYIJLGKLbnOe0HwpB3egLR1cM/J7yFdVrPA6cwjFCWWD1renrC1nytT4bIIw/XKtPJ1s7SYE4IoAEjLWkL6acxi+0eQsYQB1M1Kmxb9Grn4+cG/PMtiWdhj+6889Pkx2lntFXC7taEtWKuWRoFh3mXblR8W/zsEU74lSVlqC6WF7VDwFPFdj8L2SHctNJrYz9djVMpdpre+b+XAVhcYU1BnD012rk/ChF3bJUr3I/XqoqA3t/o8kMH2lsLMO4OV0A1a7HFmguonnjwGvTWFNaUikIT6SpMJrwmkEghE6zTbbt4ZYVkh5SAXfjHqjFvelEo+PxDsRhN8hb6J2vGOTSjDJ3sECBRHW11IXqj8aJ8qkufByTD7Ie9NlGfVuXJown2rLv/y/LYHWYrnKKHCuLdnQfpipnXZFqce8ZG3yhIIonyn3bYLPJhuN0sXHGHGHG+1uJRvdL+VCAzOOl6pjGotLzUkIZTMJGROjG6zAWLzla++tVJpxUs/6yEUehUa0K0ZbtAqv3AQwwjcDaHi6NTaUmtFthUNKaEoudEAY72t9o8mDhq29kvARTrWeueyDVO3UTCBTavHP4sUrblfStReL6jIudUCYvdYVXcmBzvg8z3mtGbCqJxonXMM841Gqaq7BpVQidSt2EH/HsWtXpPtx95IBeVwcyVoZFEY2tWKGEeDOqv6mPRo1ZbJ6wQIAufcPZ4sSyMR7HBy//+8FenbFeYF4dqr02JS8rAqkQpKk1y8wt3UqUKbf0FRcXL4/y33TkITnGCRBbQjTmM7YXASL4rCOfNYbxQYHVm4CABTYG6A4KLTle93Y675OnuLpxDojTqqj22lupDjKBYDHP4hhWB/PRpbQN/ZIV5jjFCmXzbfpR43r5aKOs6rmiJKpR7g2PITSYC5lm7LLecHug0QoOnI1IdFaY/aKLACzOM9vbfO/g52rGWBx1ENWWh3Fi6YXYRLFzXWUV394Ln+VHWWIiiNiJ4oumeOS6eCWg0QgLpn75j5OtJpg/BrsB5mFM1t9orOp1vzmZvjvHGqNfRAAGF+w7nj/l+Bc3Pm7nJBr7R7/TCsS8xLlus0lwW3chZ2qWF4I99rMJM3CIk6iO3M3v+mz2jze+ci6LqPb6ReS8MADmoTOMTfPBVis6Wh0Uqggm2eMkHGRSGdj57WWFMQcyNr47imr8mR8CqgDPUmTzHhYdfai5OC6aQIBZtnaJN1kG84rbHvg3trENzvthqi3beXtOB3hvOCikp1wZJIix9f5KWpl8YdDQGWYP32KsSF7idc3zc+UZWTDRiVRj+OM5BfBoNdtgHrEGT2+5ZBvt50JVmFZEMJ3VX59HOG2Y9QsbV3RHQIukGm0Plz8SuQHkcrdlbo0x7O30Une4PGUjjJvulx6vS5zWEd6iBnLWihzrLMC9E5enJbawtBW9IMwgMLnEvumnJ8f4/MSHMqoK206qMdZ74iSK/LpugYCa84Mtwp3ac3fK+myFQ9dGmFhUExAkK+aBRuWyF3SBKmOatR+96RaEmQ2PBfk8lMlZUs9y/+jrq7c8sw3CYQo3ouuqW0wpqqrT9fMosUK5pHG4/Pwk4+HDY8hGTWg3gwH520fN3bEMsSrpUsW/7eoCRY+a0mOmUBfvWKDwrj8afX7KRiSKYiOQwCkcgMUvN1bMILDgM/Y3vAYtH1gigjt25G4eZ0zxyxtPYHWnItuynKkzgvzih0St6YsdLTkb4zFWJM0QaNCyOy68wjQxWKDw+2AajeKLpJUpS7cU2ny5d6u9OBoTqfX++rjrOfcUc2+19lXKN72V2l3IXU+5PXu3pK+GWKwO7hM93KdvLfFSFcHhdhI5P/EZ63qojj+FMljr3cXh7e4u0FjonEqwkqjOPz/n8Hv06NHhvZ0eyeVeYrzRfMEKfwIsdz7l9A19no6NuA3DBBisCOSg0VihzNQuxxtjsfM5D7y2kc9n38/rmWFd17HBd6yvVtszV+3FUWjzKco5kjsG4bEFAiatUUWe/qI5mfg7pdY3Fnak04jV8d9v5OsdbPe+Sul8vFtSqT5yVp3tpSeh0O6vZZtslt6kb+m0Da0oaZtL4vJkhUGdmNlfsEL6YoHV20hEVanoPM8EHPwxOILN0zZ0mWf7U3+jjfZfkO8x85e6X8pnBfsuQaocVOoLhapXoE4OCm2KR+7WOtcvpxkHgA59ipjPj3Sf/lptz951V2fJ8ZptMEkrUzRfhM4wG5EEoNHffmQGDqaJwdVFuzFV3wqAP6f+KMSGk+JbF8PZfFFQ0L2W+CchdJq6Ppf7to7cvff9eQS7GzU2+Prr9ZNrMQsiEIsWMVeI2efcXewyzjg4XBFl2Pf77e30rkKuuz6LbC5VpaN4wkEmL81g4AMYJrWogLdE3hvFFyy4Pv7zNd8mClpy6obbCocRbJ5jMg2xeG8VZ7dqrfMpl52ERJkKIpAdvBXCQaHcvRHof5xx9HRNlraSNnf7660pmUqOfMr6/DQQiy0QoBiIB5DVvD0n/dadL7qLJVO74LfkFIYvFIQxeY7J3nyAuvP95MabOLHyx2AF6ziCCKbSP3FXdlKhUWxdQJMOMn91s9DuE2TKQaW+MDRrGG7cHWUrDDQlkiZ1Btu92OFfKyr2/RdtBJKq0vVXxyvn8KNAA9STm2Ez7IpXxZlCZ1hH7pZhdwYoKz3yvdFVKBX+LVU5h0wzKwwqNJwEMkIYTOqm3N2ouTjRW3Kq3nMRnLH40HeXyvjvR8ueymCzVQeP+CV1Xgic8+P/mrN9dvU3hvl/DLDUqLS59qD4aI0Ty0AcMQMHQYnkEW/K+ixtsV4/tt5fiSuzLwxiLwk/BDxec34MdZ5tqj7bTqSp5ntugbGPEiuS/a9N42p59/UZQWviMaRgrP92Pt6vY4Xi/qIhFFrKYplnk3xLTh35eS4nyKemeLxB34HC9uydoVkCcRhjYTZFMfO1IUnMDJ8PMuOdKXFsva9aK/x7glQFYvEiVS6JVV+2ZW9pt+ScRX4FhQkIvq8OHWsajeVCey5nbC8BWCxU8I+1szkmy1c5Sk1cPl67czwZ2GpOpkzN8hdmEDAo693GCJ3hg+0u4Zac0QKJ7ck6t24n0UK7p/cYxIXW+ztZMVsRCHzPRd0oc69cVTwl9lA+zRcToVvcw/2NVuHbnt2i0Pne3uTVSaraTx75dYpSX8V+lPBHofStpes5L1PtvPT66zNaIMAbj4vPG6InVzvMBab59P0+HEGDvD/Lt7hQBntNpxuQi+xeohvpq7e8PReEJz5jf+xHWSAgTqyeU9+/5VDnKXGudgpVVeh2JF3PWeNoeetkHw7DLJsAPG/L3JmaxUbAPoCBTgHb+vsNkVOiLTnDmGxRIC8thrF4hX+/JIU9sq6n/M6cAL4xfkkNvXWemufhs4GauQGI/7sPWtMpVaUDsFilVYiQ+Lm7WCTI2OBrjKc4kVxBbsmpqkEEkr9n++t1WyIn7atO9xA6hXV1o24Cgtwdy1P3Zi92+2gPAWPQ36I1nVJVsz8GT4aZgVK84Wwuvf5pljufc/qmfom+ET84PN2Ru+el8+Wku1RSFBOsawxVPwSsOd85WuN8bT7aa8AM5E+Krz5YDECjySV6SVyepPYHbXOg2Qpt3k4i2Ls6wgwGMQJRH4nSksS4VuoOQXgM+jqJ4Gn2GUfFrHy4T54UX4L6O0/PS8kxmVMq3aI7xU2pnQSsPtsj2Pwo9tJsyDQrOwmS26NZbkmlyLlRgdyfURNXJo46rPB8PnhqvNoy1Aefq+R4DaZR6sVrmwBDuW+TFOuHE2TKFwoM7EcFTuEco+mtVI8UVS09DenkHP1KyfHKT5cBJfTzwWBw8vFm7Putu45RfGECA+rFa+uWSdh4EyXEi+5SydIubwkVee1G0urUdn9JtFL8VoHNQzqIQNgI5CQ/AxPoc6HiFOJ9xR2erkJJU2srHElAvLbqj8GdT1k6/OfFztVBpQr2o0wgEDkvai+OG9Jt4lIVPIIIBHL67hI/nQHjY7W34zqhfbFKpSfBQaGqFPqpEnYK7a9XqXCj9vKMmh/RW3Iqr4uP1qF2k/Qne1MihUwzuJdNN4NBiStwUy5aQIhPsSGky6M6/3+v4mWTRLz6bITP8r3vXSInDdoerqcb6Bvxx+BM7dJdLBL/frzZnru/BzRs2U4inU+Zmz2BADN86mKXDob02mJnCCKQg2hlQPNzxQqlJPainaNfb7XmmOxFoWIrOhcvU82piwGVSLpLBdDIXDVFqbnZKd+D8nyGN89FOc8vEmSTdFzv7U1anqTwFr1edhJCptks9kZ2wtm86mzfYoPVrD8AWnhee3lw05CH5/YZ1mTHuK2FSv/mIBOhK5IhaXX+kf6TBg2R8+s72BtRbSRaYPMDr40VlcL6azVOLOG+SkVyx8FW46VWKe18ZiAmhyC8DLy2DI2ZdDkRNzjSkbtTlbMVgbA3YpxP39Cdz5khmkj21WrMolQVKGPfihwrLx8ypNwnGNAG381a768ovlhQFW6w3V+veRYXhCfYG9kzNljAIFYkG+OJLRrD9ryUU1Cf8+IsL50qnH01n6Aduj+PDb5K/zZpcB03GO4+Ey05fYAAeyMLoUx+gjnnmDvz+Tdgr2SWwaxyUm7pjnygd5+c6dgu13N2rBUGhcINnjfF4wq2s99VEYTDeXuur94YpCxay91lp1CgF1METuH2zMVL10Pn+EArDInYRhibtKxMIKAqvMD5/zuTvrWgt+Q0rHCYopw7ste8xqCyXRc+7kNNaeqZk1qGJ/Ylzs/bryK5o6IrEoTelpzY2sYaZhCIXhD11yerTi4/KnWFyyoM/hjckr5kytXyIbg2XVgfjX/huhsnWKOgJacSPM1K3YFhuoSO9t8s3QLkjAGRopifaFws08sp8+lvKv9tU3wnSZM/zScdae5VJcn4z9dymxJkky8UoG/k3RyD6S0Xpp2DGmz3OJEUMPijcevdxUnPQ7+2odkXpj+Pfb/FR6sfAglKNK3wigUzGFjhKACL7WRyNXJexAplgnxKVsypKm38pEoPT0+pZOmW++gb2bjZen+x7mB1Rz4DOUBHpKn1uhxRZjZvBKLL6NeTZ3FzeyYGChQzMBY3gggknDMmylW23pS4wsctqdT1nPtrdajdRz6f3fHBO/77zT/P2F4MyXGy2BkcNKao2C05I+fGmovjoca6sn/0qw7ud1WYJ+nI3XJEFnH9CERvnGW20VjAQEW3FtoChUF4Es0bX5edhKZE6nkpx547h7/pj3pnaI3UOF4bPqPmR2wl6dyKg0KKjtbBVt9kYfWFLL1ZUBQFRNFMPo7aTcDVsKzgi+eSpV1eY150Q9wJIpBYkczbs3XX59KZIzM5NgwCXS05k9ZmKwyiSyL1R6O/6i5kRkocGmjUyLlRwDSK7ylXPnYEYtiKnmm/TqFFN3RfOAqdYelbS3Vw7y6V0a9nyqEsiePprdacHUtBS874JdWcTOx0lmhDLMI412yx2OH5KJB4skGvt+XFgXb6LEJshLN4ttE23sTBVptyIEv67H3vZZ4QwmD4LTnDZ3nl6X5GY2cZ//myjWYW5Azl93zsDmT+ixu2UUMsc/sO66IaZtDgoNL07aUhcg6127KmaSxg7PttiMaYRYnektNnfLARScGB639tm2x1CG8YixsQe2/nasMnH6PY0d6Q7Yl/Opa1tPPM9iMV6f5+CBgrkuW+ra9aJ081MYHljsecqta3DOyN+CFRmlp35m/mdjBbfbaDuArMSF6d+FjfBaANOBoCtavgyHqR3VsmIcpWhRJEIOmbujmZRj6fTU1jA/tHX3+j5e87G4Gg9435Q6xQNsQig990a4nLkwCxNp+PEtGONseA92IoCEWOlHs3KwIJlM4kg6kkz2y7nvOkLjSMYLj7VPq3MBZfRG/JGcpg63vfH43F5U8gYSNbeMDFOxcZrnMf95lwrC5SFz4CMFhgLIVM00K7761Ul8QRVvC8KZHiJGrFwK6j807uru2rVUZ7FeBCps7oEHc+NfzeNR6WWg6Djef3z6PI7+xkKhCex0GhBVZ/wqNprODwZxlb2h+FDB3b8JxkxdyeudgttWDLTsQCwqdmN7kIwJYZ7IowEzGku1TC2Rz8ootAHM422Z5SOaxpzGCw2Qrt/qiO/SgzCETzxrqrc6z3aOwuy7m7FuQ8Qo7JHuZi4+2rGQqgyo5hz3rxUqUi/TFlBiNfb01wj+CM2C05VSWYRkuPV8afOO4uFggHkBphs3zwrXOx/ci+DFV4rQeGO8zSG+hYzIjFCO5Ye3m4HMXDDL5pSV+JMuULhegbuZ9lMD3l6tHYznLujgVRAomPrhRuFmmgAf0ejx+HyzxhTgW+BGBxnsUNNJum0Qhaf9xZeoPdklMxfCdBonz6EwdMmN6a6JFPJlyNNdDwgF8IwQku3pxMgXgigLWKixHIllSa1+gEqz/uK4obeSNHI7hj9fkx0ns1DpRVCLPzvd/vfe9cdHDCextmkM6vJ9Gjr1ojOBz4EoBG+fte1zRmMNp/6y6PKJ4wgQC6knR2Mi06XHnRQcbv/FFIBTByhI9iVrZmkEwnNUWP0d6bptbAB7Ei2LzxJq5qzGC+LXMnr01WGEDfyInXrpacnOB4glQB/BPMFh16PnoXpDsFcvWUeTYLFOqgasWlqWeXe7tZgedmzq4LnMLoG7FAYNySakomnoSfovps/wjgavySWuKi8Zh9DcHn29G7YHkbiQjIN18AFpc419GvR2MG18u8G35LzsVwFqsM7JgxpZnvKVf2SDEdeG0AXlEXNhLpLRcuPmmwIS7RAb1AMx7ESRTkG1JsNMTiEY1qoFtyfoQuidRGwPkHrr/RMGte/zZ/39lJJEYgGqLnLmt29NbJb9BXvuBjIjkFep85y5BjufDQm0EAbrdZV452PuVNjREc6cjnVLW+hS6J9FaqWnc8ZkzRYEtfRHBHE2Bw5SJGqkpfP8IYT7ndArDuL2fHcrFvzazBBriB1DHI0Xp/BeGwgPuD+jhlff5U09jApqslJ3qXHmYwiBHKG7uoOoemqrUVDif/tVTVRiAXN5nSyGr444nijQb5DTGL8iEXFa8DYr3PL+vI3fm7eImEu7hXsg3mrMYIhrtPZWDHb8npAxhCZniZd0NtyfngBzuZquo0estW+rfXGkNK/oEHeMVtBMxHJ2ZfzPsNitdBLsdSV7gDtucsfGGw4MCN9l6NDfyxKZnixfJL9I0E4vA/76sUD6bEisZ4ilkU08s2Fl+eu8CQnu1a7y4/JFLJdV+rvz65CMB4u3nxL5+PG12F4qBQARdbnWLnOjb4NCbgHH5fZmwv/miEvhErDH71ahXVWo8s7eKPQkI/+Kn1z5hR1/NY5NwIcGq8wOr4OFBRXty7PM4ft4Chv9bhLj+sa0xgsNk+tlOo4sZuyRnFE7XhE3U/Z/jzqfi3hTDYTH5ut2In0yK7v83MB3uTlqcPuFgt1btThEQ7k0SN4+dVqEdMXljAWnXoiJgbsSugCiWYSkuc61C7o1blvpcgU++LmXb+8+6rNY0JpSFy/qSTm6p+ko9CVjRvdo17PNQ4FiOUUO9M1ReOip3rusYAxn+/lrsrcXmaw2/JmaVbekrFg+rU7DyzJakuZ8xd+HT892OCNGLy73Dq/c78zcfs4fNmZ7lxBahR4QtmCNSBLhYoLLD68cGrMYD1Qqu7j96lxz9JkE8tqbSOWo275vyIYHOyo/yqCMDiLINlQdPvse/vqkFe24WP4sUL4rw5w6ryMaP/tYE50/xZttEc11jAcPeJ4PB/9HdANzurOrivoVYJ6sjnlPX5D8Svm2CDiJZCuwf4Byi0ez5qJzzWe7+phdouCg9XE3AAeheaJoYUpR7+6BoTGOk+UXOjF1ckkp1ECm1+oNn3j36ood36GxuJuFWQA3/RPCF9UWqN8ThHfkOaal7l4jRI89Zvtoda9DcrUPNYoRx4bRobGP16YgXCwNyIPxJNmJ2FeprreUP0jOaPJhAQYErkfN6evSWuRE5ftZKLQ/NGL4g17t+wNAAxDufv2QUo+6i6nrLGCG68xkNYICBOLJviEfXMkaf7pWZsL35IJHzGB0hlr3LN7s+df35SZi1GIAzyYPTc4+MNE5A+K74LpNSXCMSixtipsYKx7zdeqrxoLTnDmOwEbrXRS2WesKKowF2IhM6wct8mZaH8zuEvU7sAPJCPXfvkX8g77A+z3+cf+CmR1gBoFFhyvC4zg7HBlyhXOOjuIALJs7j+Wt1EPRXekkpxEoXQlNS4EiuUjbEo4a6+yjxhkfgfYu5fa1wsz49zIfObULe//VCbAhOe6AUKwopAE2ZnoTbD3FzO2bEBGCx0HCVn0zZ051OWbJecTYnkC4PEr5MJBCr8u8bHqubeiCK8XyxiFB+ti0BxeLupsYP50wbCkhkMogWyPhJxxSU8rDo7wpgcTYKL220jkgKrv7cpTf4BoM1uwYHjZEbbb8sbdbaD8GKw3cNn+Z6xAUbvvoabqDGEI6lqbcBXQA2hU2Szsx61Z++k1eknA1Ug04mq012aSsMPvfUwJiPGyNhelrlIUXWv8/WY3bAsmLadO3l7bpUlOEe/DM0CfEUXgVicY7LIZmcNtnqB1QfhCbrgRAsUxktV822SojZko/2P3MWdRqJ8esLH2Y68Pp5GffBiLVYkvTAufR5sNY0l7B/9MrULLAa62Vm7dVdn5Pw41YGi2CojZWqW7mLxSI7l9E0tyL0etMbJ5Dv38nybKa6CWIcfEB5WVMTT5xpT0HKMRkjI7CxPV7GkbWgrHB7YTAVbIxUHmRY7/CvpyVghr8AWxuJ73zonnX2e7uUWxQEO9eE/VmazjWb892MMuWanwi3pDirFNjvreslxcJDJ9H7LRVfBsObivCE1l/HuEL8Sd/objZPR4GnlVa7lRIvecgHpt94IZbBvNMaQb3EqnNlZmVqDnIFR4z9fUyLFCiVdXuITG0nLqvX+XpUUdeHjCnmQBjkZVzn7lrwaasbWJFqUeTYTEIAEfrbCt2msocjuwY6IJUgVstlZ272VmqU31CUNii4CpnC20T73SIgXxCfG1aedj7fGxzLV4cWKI09Di4exIuWFeE/GiuTwe2cOxYceqCVnOHusOjuQz1xtVfj3kBmuqAp1xa1cLj0JEuospCN3PyV93XQ/BGy9uzjJtBwvNms4Ci3aMjfEX0D1akP01JhD6cn2NUTfmDYSLbQ65Bom87cTZNM5QauTviVkIkBPKZ8SpFgnYVMicZJOh/IaJwvCiu13QH75X4z2X/ZQ5t0Aatz5I+GE2Vm49Tg2710LxGF6LXPThRWBUpRz+2M+Ig3669VOpsScq4+cmsbx2i4fr2PF9YteiE00py6NPVT4d/IDyYE4fBZZtNPxmovjK7rTPEt1B+HJtf5alcQ2TgdTKTEWMKgNnxonC0B5LRDKU0msaLlNfnCoApCyPo8NPgZRfbabgIDcqe9Dbx23GXtnPqcoNajNT4itTYc/uhQqpYbOMIO48Uh1cOclq3J5qQ/7Lljh/PO7pioAigw0JZPGIKpDhxk4kDthDbVaiV7s8MBG9SBKhYgTycZ4ol+u995OD5vl5FQFD276IMNLfdov9MOK4e4TxRNegGdJkE+j/ZdF1F2dFjAg90P0PUShSA03MXpBHDwZKejdxn+QvrWccf7/5DJ+o70CkByFFe2ZC+DR+lxd+NRYxNYKMTYSRWuQ6tn9KzBb1iipprpYaPMDzbYpj4m6lFdYLrGixLn+HmAexRPXmURjPP4T0ve7sBFJb7WipQdgMJ0h9BOELQ35q9Mjn48sRi73yhQ8+WiseO8vAa4fLXUHjUk03V5WGCDm5+5ixhGK1JK+4peUBQyE9GIlNZcgmyZ6LaCYMBaXD3y0F2II747WlhcA6piLo73lwiY2rXBITOAUxgjP+P7Rr79ec3esNNMDUJ3sXYhaNZNehdCpIMUMBjXnBze5lxfGki8kAivqr08A7Y5E+tayyibeJu4oUH2r4zFjZBRG2Oy4gLmWgl4AadUQhzgZJPSVuuuTm/gt9MKQGmE1Xfc8ubsW4N4b32lsoj13+6EQMf5IBO7YluWO3J28NuF25ieEih0qqSjeWHd50Bnbxws2IiHGFwobYpGfXlT1Qlzwt5NIMfr1xi4K8luMCA7/BaPoKuS3iDnf9nBB7xwX2r2NgFE/DYQJMISz+Qt/DMbvVT95dWrL3PMU8lkgFrtJuducujRulnae3/KZBWhV2QYwel7PM9ttRtFdLN+rxPs1LbcJlLHBtxU1P6IKRdLFu7lm299o44O3OZnil9Q5fO03cndMX6XS11nIK2Klj1R/JDzJTwDa4mkFz2lY0RA5faFAJ3d3WEsqaYyip1yCprAgPpvffJsgv/l0F/PXuH6KECvxUvWn+ckWoRNh38HXUieEwcq82zHaaIynn4i5/yU/eWlPq3n2w+rq1PaPfoVWp5Bfn1BaV8Jgf0E9B/gF9VipOzioFLUGqqqE0Gm5bztA78LNgUadCM+Siq5NVsyibIhGylS2qw4edxTy6gP8ZL6n4Ua/cDxSrCetTuS3iByj8bCKvlq1kwgx74OFOW7897sZK5K4xqyJl5napadSPdMd4OvM5zS19kMg9G34wWGqWnc+3ss0UXK8zpLnhABHU3En9FGesTMnUgy99TAWN8i1fHqosYqB1xZMo8SYIRCo8eL+0ddXrdkGg3tMTTyLEYjGm7h+sCMCjbEYKxRXsLfhthFI/oGnyN69zZwdK8iVBx/+ePiJsyqSMeF05vM1QS7Osr9emcVAswXTKTFmMKgJ7TAS1SsDe+gMQ62Bqqp2Mil2rr+YSTyKyn3b3QWB3fozbJZvUmOX5r6fN0UxGcTEihRPkyxib25PIpadjBV14dMCATq5MwbHBy+zGHrroUxukGIGgdsQP/yrRPmEe4jcsMJgqmrufC4z+0a0fSLX7P5eYG9jhRptp9eiFwQxRsr6PP77cZQenkQxu76hCg660M8ix6pJGewK1CbgAOBzvoFmy993/x3uoxYjuGNt+BzrvwSZK/Q5RlBKDq6yXVexUKGy3UCzB9MZ+Q5gttF4OMqePJksfHFY3dKGfb9fmlqT3/Km+Taxi2MRbO4lptwbiJUIPnptEXOtKv7+4q/Ifqq6qzOaL7DFkasT1kMUHXoaOlHqzN/ENYKUhTuapnG6VmrHGKxaH45ZEF6A3iHYxRly8W2zJccroVCkzuecqtJvBG5PeonL0yti2YRDnafEHYLpTBHoVr68/RCduutI3LpdN4NBdejgKUHf7skQI9uRYqDZyPcIvXEStcQutqLmBTF60dFK9kYvdgY7meqoj5q9WhnY1yBq0PSUa7bBuNx5jbwwd6E1nb7BDo6RQowVjriaAkf2DXnc9cdsvD+Zs2P3j37SBlk5HL3Q5kmqAzTexBiBMIMGgXrq2h+D794Eqqj7Y+vdlbg8zaFv41qW0eKqbLeappyJ/3FEEA73lApfQ4roxvCTjfE4pxI31K883TWGESuS5ORZ3Mz/bve+lEyt8UNjgSvoP1Ykm5MJ8Bj1SO+tCR2R3BHdKKfZYBorcQVMwavDHw+5RsJGGJPpXKVZoYcNMawNKyoDO3HSC+p+cNh6fzGM3QSpIr7izt1z+0e/mQpFKvdtIdNMUVEPmTmorNQdgKuCn/7YTqH4VqhG80Xd1YnX+rO7VE6Rf6mLF0u+Bk1sqIfNMbx4AFYUWp3P+EDu3se+WmUY499vklyRH1fM1i8zE1my2nJ3fbcicO31SN/UB+uPHki3cX8UEtgPssJhimJuz9zzSNRdn8T3VESm1ixzlYKlHk5KiFCkWM7ULuR7hJFz43D3YRjryasTOVm6xTn8ZmSyR67ZBkwRoaMeAY+aH+uvz/c0hPLHpmSKlyj01p/qhMp2fbXqQeGaTu5LkFJ34GyAfLt5RPtwpBgfvEkrk5eYE+sMY55cORwjfWuZn0E/PdXnB27EdlS3jYALbX6w1dGUhq8M7OEshu99gdAZjqKy3fE4sSI/JzHXeBP5SvjNPCpl3lIixWjvjREIL3nlpv2jH8N4lLahDXC1XJc7Hu9kxYwbaA4xl7w6tecy4g7yZn+j5R84dJt+xITfCRFUtuut1A/Jz6cE4fEzlSmJqxfzIIhZSz20et0LZ4/k1UW+1RjG9gpADepvDqZEcJHdI7epfhY+y6uD+8xaWUjK9i6BoLJdXfgkv8UbMTf+hX8KWe7kQWddALYrBQe5SZViBoGa0M4y9o9+l4nZ8/efuDz9cfqml/XRGM0bkU9mqWFM1p678WVH7TZEY+yiuIK+DRuJTKhstw2JJ9to3eTV8FKV86WRZTqAezB74I6GFb3VaiNgcrFDTcnEMrQckxXEJMrV82n9U5++vfwGXWC4LxTEitUWBfJE9773ck8IYXD01p874ewR1N+yX0RyR4OYhW8lsizzYIpMds7Fiq7nHIhFgvTvkT8KteduppG351TA+rTDH73sJARTKQX99OiuLHanoJsOT2+15e7YQBwRKvJPb5mECVIFqLJd28Plj4TEP6JqhcGmRMKWJA9GvWtkJla0Zy5/FFKJu8XpKRWmkb/vyIkVy+MH1AxtTl1xYvmRoCWL3dO3lo58nqcgpeaT16Y3Av2nz9Qu3aUC1VlI4aH3AQwAflPlbiKHxdT1YDL+oTVKZYetCESMnUz761XiYMfu1BstkFMaU23/eY7J3qennx7hDiKQ3B3T+1IO1s4ZyYb7Z9gPUiYUTYPp03stRii95Pc8dxxbfKtWTkuJFU2J9NfEhNDpYLMxjdfkRM2PZyYreled7WFMNiso63znKAV92g699RLnOlPv9VGnEOJJfwwCMNI4f89uS4l0VpYmaNEQOYn76BJhLD7U6RKHXM11gMp3LiWCk1ammSkRjO7Esgrf9jG+2v1LWTqD31nIRtLKBKC4aYHNQySH1jQZ5IBvfwGRI9Ci/uokTuQaI4LNrzONct9GzsvrrwoOHJYSwcQ/0EfRC6L28ljTsMv479eSvhLkE743OAOxOMdkSBUsPhY5PxoAt3A4G8jr1MCuETSt/vokxhvFG0e6D9OoDOw75LEVKfNupxYFtT1VJ8hUUyLha8uzVh08Ijh8B30bIXRa5g5kOypN8WiFQ538lgSZ2uUvNb+/siDrOiHOyOcjdZCVw1HMYEBzNgTohh8Kpar0SfSug/ePfoPNhu9dXXHn6/pI3CVUSBdABhp/CThUpfQF+lQKNefHM4B3POX9zwdO4SyD7S4W5/BD30bXc6bAC8pWOEpdnzty9zJeXkioL1sfbh4nD3VlcQn/AdCPNsbPw92HadRdR8nn4YfQ7WR6ur9WtxngrewJle1mGv+l0uN1B+B4RAR3vM5hhh+usoYNnWhRHzlXiAmf5Xs7nWl8eY4aUCWLh86wT/C1Snhd+W8LY3L0aqqmiSGMySr8++sZtQuKnBdecnzG/tkme2AOgSDcvKG2LokWzzeIz4vfGnrrEgfEvCPpL5hB4Ofq4I6eJ66b/fWab7ETbm5S0VW2m0k81WovT3KTqxV1oyEWNR6XxVolp8UX4EXzbbLCITHBNDrQbEzjxN2pMCARVhqiEV2U2KOO3P2/oUfpQLw8eNzzRntvwpICySEHPqcaB0BXUssz7WB40fZwvSTGRiR9tco0WtPpKhtQdHE1eW1uvbvQ25Ts1kdjjECYwcDAbv1pJ5FCu//V9DQmEojyqpna5RGXeVAl41hWtggvOvOZ2H2L7kAs7ioWptGevWf8SShNFawyNEvnU0Z/X+7t9Mmol+CrbLc23YdT8tosAF6tuYboyenEpZhUkcHN8aKnXIPwmLjd9oR6NUyjI3f7obELZiwoNiLJM9veSnUOf9KPTo0vFPzlNG1Qm2/T5OcsefU+TqcuxY+3VcZa26ieOCB3c4EFChpuEtM4d58hKIpYCJ5mxc5wexvf59Eb6Nu4n6UzUx2zMNp/k9ZmAfF/+X87h7+p4FxzGyBC8WKo0wH0Zaw63ZlGd6kEYLGbMenF8DiCzSv9G7peN6O9t/bywI/2lEtlu0lznxpjEcJOMbcfCv1OOxCMmyF+XBRerEXzRi95tDyZRm+5BOGwoOyzQNCgBnjMoqy7Oke/HiqiMobv6JSx/jvy+cRLpOtAH4CLjbY4jf+FkCvqoo0NvgSZ8pIfknWOfizjpo1EBVVLsw4yvURB+25dWGEwcXk6ga3Pg2cyenLYD3qTophzzXZDB8AEBKUnm8Zp7D+NW0sMmraavqHJ388JUjX+/bKMvnqzkylFqOJalsH0lMpStsEETGGhUvAD+KPR1x25G7tNyXpz6kqQKl8owD6fpj9WFAVEIV1eFwBqFSInnIoY+0e/vD3nM/YnPiYbzh73vndpQ95pNz0Yc4ny6dPx3++AHm0V9OJWg/A4x2SWsOt6blUFj3D2KIGM2REZmmWV38nMZmGORu15PCw7CSbAQO4Drecs4/a02jOjq4FwoAd91mpCR8SceDxlG+hiygrtfqBetzVk65sKbN5OJLSbAaL6IVHz7aVxm80FMuftCjPqrk7ixiO6FQZbUollDHV6GJPhSEMi9XTT5mCrFR2uZxWVhk+nMBYv94ahzoMe3df0DU253RDeOIka/Xo4njXUAKbYfV7TI3h6p8K3sYzr4Sx+ANhqFWVs6a5CWT5YGvoc2KMttmqT0XxRc3FsYR83bbyJsSK1QrMoCQsYHFS/LXT7vp7THDP6KhWgb7YsvfEwjOGP5ysvDWe9zjUl0gyOjz9vSqZ4iVwRVIhVSliSjfGELZFo+KNX+LZQJl+kdsH4aqjdOM74wcxxEZgx/N4jOKMXIGiHDGMran5ERyyerwxsMxQ2Mfz5Vgb2sFlOw7tYFX5IlKqc2zL3j9g5R523Z4PwRFXp5GiJK2gcx29hxRaTMON54srkJZdo2VdvLCOaNyKjuoMIJN/i+httm8D//jYC9hn/qzQsBGLR8YfIh97n27P3RD6/ULlShEyzvnrjOROfxFw3CDM8uTtWEO+6+sJQczIxjBuxIoWLsCLQ/9bxeC+TObwqVaX9EFBQIVbJTiIF++7PPQzKu5uFAqv38Jygk1UY1i5/iZkV/h1gNAUUOzzDGO2/cWJp4EaIuj4ad+G8r4ot0SiUwUrdAfs786+P02dnl3BQaW+5aDwnf6wHRVIR66mL3FGAf2QXY4M3Uaa8iI23QqZZmSdcB/KS7gINC4YZOETOjdVnO3K8pz295ZpttO8KnSpm8/edh+s4N8TcX6JGX7WS1+sUwTQ20KhSBkALFjzpwTk7trdagd5N+0fff5GzYwNxWFCwDd2wQGGcSDZEztH+i51vTknL05xB0zyYSvk+l3I5u/eGGyO9N1ogAZSHaUwkdjH+8yUrZiSMPySvTq9WQb2ObYVBQ1Fo6DI7aW3+HbJYpdHeS1VeWJkAQ6HdO0c/zlPL4Xpn3FjO1CwAAuXzLG7/6Mcs5tPU2sBpXX2q9vI8Dh1vrSieOCuoaJzyVsbW0pnPR7CzjcRBIT7jg0pLVkj016vGeRZkFF5J4maFL5iAQCd3QNzI58MsHqVvaASE7qCxkqN1qN0xvHgfTKUKDQtu1UYguWb33IOcFSyZmuUpHdt4XXYSNN7TpzBvBHK03t/krhR1v9X+mJnFdqbeCATNDpCcrulZckXbQKWiaXgwjZ5F7jJ7vfk2xS+p9w0K5lE8QabYKC8jGVfWGzkGWw0g9yoXSpwrs9j8DhrDFwoSZKollcZ/P8webQ06Wp6Fs3nFvw2zGx1Sw7lAY9TMfV56UvFQ5Qdbs0jFGyeSo72XVWg5uw4WsTMho3fk69EQy1p16Ph+R1CxYIbAaIGsDZ+jXw9y688Cq8M2nEskr0wyIOFba6ZXy5LIWexcF8h/++535G5mkW9xOuRbSMV2uqambbqiTKMKKhqgbVxtSqaxwYd7NPVS2oZGzVoldxCetGcujf8k3ChuFHa0pC8A0ZazhTbPLAoOHGgv1emb2uV0TfRyeCt9e3lp6FQs+KNgmlq3Z29c4SZPPokVSQsYGHjzO3IgzS07hbx2LnYMtjq5jzkU49QxVlF8tM6CGZQ0pW86KsrzpkSME6sVKrahqj9nG013qeB+tH1R7ttCZzhexbq5PLO9wX9yVwQQidixmqaayVGtMNgYT6yi2LnOQvUhO+l0TWrK6wr/PlNfwGOEo6rQ6v7Mg+r3kQnDudCyNUxdOfxvuA/ANZoRKrGz0r+ZgQOIgfSMotwTFqH6eu+rt23K4koeRCBulYqFxbAZVubZcE9mzbdn7hTFjGU4l2qBwgKb535+j5d8OJAZhB5dhQwQ1B1hI9ElRlHh23YUCJ8/pSh1ey7v+//RGP95VaFiwQwGUfNjTWjHVb1ntP/WXZ9YhnOpc0UOv855gsaeCL9HhO/GDwDVtX9f5Fj3j35soiqwAbjbTD1Pp9updusj8bxKi9ZI8RL1Ce7LMtTppa4VyXAucbfMHVb5TlRVDB/arKLDFSI/78I543/PJt4+C0DBvtMoLbdVarrM9kOge233F6qZls7hr6dcsvUGxz0awh+Fqs4OvieOaT5QtaNwj0B8AG8sYFB1trOJmovjNcCbtdDqaeWkTlHHI+9m6kzXcybtMhvASfECYwrEkYZo3OQ5wOjlzmbHj5HPJ2ZBAFz1xgjlcPeRKADK4bAfRRGKjUzzLa6vWp2jH2or3ZrQHsnlGK0/hYNKb/Mc+/1QfIKFCg9XkOM5teGTSdzwhQAGAnWSL4TBSo7DLzdRK9YV2b2dTBG6NxARbM7z0b+jb20BhrTn7vsC4OY4kTzDIpqSyToJOIGiiLMRc+Pvhj8e1G10FUrGtkbo3kCNX1KD7c5x6n20RJDR3hsnll6QGYtoSSUrHKq8QNGN92NFcsIiCOSwhL4P/SB9MUOz3OB4w+1zSQwtOwkQPtg0YoXyEoNovbv8EJAp0GERBKoYyeHPtzKwubo3gK7IVny0znObg+0KRXpeip1IBMDvugUKq4IHg2jP5b/jCYqiCn80xrUIYru/0fItLohIgK1OFgFotMVtjtcbRX5MU2sBMft8sNXYQ8dj9kchdkCRRRC5u9bljhC8snw0RTFbJiFwS/aQadb1lHnNz99LomhDLPrCoAowe/zawxy6i/mamxHQZhEEqidIb5R7go1IgKd4qeJ1ItbuaSCOHDvlBckGv+5iYQ5LAVOYPdAhVimcxVHFKjmHv7b7K5ovFlTIYweP88yW0zXOAdEyiaMlx2ER5FcvY0s/YQ29lTIRYlImQUOX2dELojZ8YsYK9F7G9gKqAL3wQ6KP+UzzWCTprVQHhQqYnLqWIMRe+WEALLIIYrT/lrrCNdjgEHYXC5eJxXJmBSxnGwzIrqJxarDZpEXS2rxK7q5bB5lIHkZZBHGkIXoGTzPISU9WzCNfD48JyJVI2p69Yf6qmIBDntmtSooE+fREI1cOh43g9SWWZTCIfqrqyOcovtB1OFbK3IHHHfy0aYMl44M3ZX0GQbzVFI9SQvVH4zyzJe4h73TINGMZbkGBOoc5JoPYELOvWhPlCjDE0OLr9tx9CIu2DuJKf0VE8cZ7EkJRZy+XONfbm0T8IozFDXYxG8pkFPQDZGRoDGbbz6G3nr6hzaBBhZvucliCaWI8moz23wTZZMD0xfhmfPDSBIw6sJWB/QuifqnD2ZxhKHkW11OuOSYbhMNCIPNXqO25hz+fbKO94gZbZQGDUnfwcJeYIommDZFzMjFLIQJ6//b+0Y8iwNSB/V8JFD6K5PA9Y392oedbnDbfkbu/9kchoaKDWe0lb8/BJbWCsFNo19PNXYoQZfTriZcqoDd3MI12PmWKgFMHtjl1jQ/eGQuRiOIJhiFyjGby2EjzbbrwZs/YoKOCLKyt4MDBTXqKUo/230NXtHMwM0WNk6ihdpcWiqJPUQd2pj4ZYxnZBjNlN2q099Rdn0ctEGDomGBPFihUofCFo5qL4xCWG4kyJYB0+nqzKzEURdWD8GS956U4h9/MlMORMgAfBAe8Tl9U+vdwzmgCAYEJsqpIuWb7EdQkvh94bYeuaE2JCBTWS9UXBss822GpoShi1kGlRXY/0KgzkPg/1n/ixZJlpG/qI9OINCo5WoOn2YLAAv9bXJbegI330aOnlw9dGRt8qcrZZ+wP9MYOnMINsUgL4OrAlnu3g6sD+yRRPjEMb5p6Xp2uK/zeSs3bszYi0YUk0S6lqvWUMVADk6L7h65o7ZnrZwGVAtrtuVuCKIq4cnB1YP+YvDqxjOS1afqWVkdef+tyYJkU0W5/B/atKm1D87WfHzuuzOeY7CzU2zpybuwpVymi6Mbcd0038b3phWqnKGaWkbQ6H+wcwfjP13p3Ja/NrhTXlCBab7lEckcBxMumeOSrYPEiiaq95QKmXrseJ1EDr40KcNSBTVHptsz9zXR/dr9mGd8tHfxIWUP0XPGFAqFLD+3VHahdvoQluXbIekXb/gewuFPPJq3NQ2+dBrDaVGTpTFexHHggaTl9azEkDIojL4a7T/XZHjk/mkFASI/N2svTH41gTo/rcx8fuqLtfe+xiwJstpimmvd2ujRRFKHYyTT/wPfV29RalNtZeiMYRoxQjvYebSZlqN1K3SF0hi0KqaHNF9k90OjfMWIE4tKhK1pTPD5Voaad9K1luPvgg9hltEsd2E3NVbKNhmVE8cVnM80z04IDZydTZc/4IDG0rVTlDPR79H5V8DiE5UKW3swqUNOz9O1lb6ejg5qlYJFz4+3JT7Jcs2UZUfPjljbDstxdyFkGEziF3aq00G5GcEYB82NG8cYHh65ovdUaxmQC7Cv1Tpp6Hup0bLDVgW2InkuueLwxjHDOSKB7y2pb9j59XuiSQmtKpHcFjFSG6uDOUYz7ia9i/WB10Re/Gmg2dHAXrh5uvbvyzFZhWP21cDYnEjr63nqCVM0JXUosf2gGAR3mZn424I5pgy9LaRsa8P2sxEtkb7lgkqFZDApsxnOQySzDCJ1hhArAr9VeHNF8YQZDVUJoX7yBmflCQV344CbZbSS+7t4VgO/nUx2PGVEEdr7FUaCPoFsw7D8iZJoRi4Hc2+nlvs1GoqqE0NpzN0zuaBjxUsXN3vja+EmErTk/rHAEWH9SHG+8iQc2O8BQ8/f4Av6CpMEP/fKLVLX2Sgnn6FfiCh9BrFL9ELA5mbhJLMaMDb5MnVlQAKdAHL7wBNEva3kWN6sKdoPvkNLtryWFdileogRM1rLx0gXgo1BG62+0yHkhIKe/zdmxiCdflruec6Z2cTnnmNXgB4PJQx3k/QkHYrGAIAiPt3jZV0BribLNqfSzAB0pBAlStYUoG+2b1oc7RTH7waGhc4nAKbzLGuZzzQ5mn6/gwG1zUnnZWTjjHH4lrmCBANAu3NTjZ8d/PkzRPo2xGC+RrqSm5Q/ugCnSUyqsQeuvVZDECTPO/5KPDOwicXak96apZ0VRQPtwezHU7qiVJmtC+ykzCBjsBSCJZDufC3PQKvz7ig5R34WTsVka2lsibV+9Td4H9F4xC+KTJ6iKAJZ5QtgMMwEGwRv8Uaj9MbOH4Y8eK5Igs6Tl6QkfFfwfIrG29e6C9hICdsafbffXa6HVuUbVCl8435652IPWEDkhTo2Ki3yM1P70H0YbT9XZ7geHAj4z3wYadRPzyEFPMWcbTSCOqIInWOGwJZUYxGj/TVqZhCITslLoXN8s0Xa9YN+ZwUCFd3piVWDf0hDLanv2TlPN/kgoVJZCHrkoBqE1J5MfCrsVgLapl7g4MhCb6BJtt9LUetZnfMDIdD9ULSbGv9+mZEqUqQ1D5wW+UPgJi9hNVswAM/XWYR7qWvfpQKMu8fa3cWKpwr93hT8aZ2qW7mJ2Dn+oh/lrw2fMgrCAgaHzAV8IaIicLEJrTsTzKsCUa3YeDnK9xU6JuN2lEsHhAqGVluKg0OJDjzsGyPa+94p/Wzibm4BAcIEf6sInJVB3c6J8MgCuRnDHBxwUQby//uESc9sydzCNCulleOX+0Tfw2oqO1mAaWxD0UGjztKID7MM8qwkdTEKru44b5DP1KgdDGOe7/PPzUWezMZ5sBCywMrHzRw3z0HtPueaabRCRUHPoXc2zOFq5ppJjBg7VwZ1NDH88rt4KAXr35V+91Pzgm1V6zQ547+9v3hVIDjzINllcO0ePdD7eGVvalTLbdPzHQSZlno1Kl0QeK/eEswD/2TnBJrRy72YGDjrAg4c/X/65bHJnF4qRuLtcdbZPDPdjLN+8lrnXX2iYZXzwtqSvpNXprtDpsOGQuhDAadpuQyzGLsofhAJAhW9jFP21CuDHIPEW/1JKNAjIBGJD0X84SG7+syn73yhJfYFs18po762PnLEiSYf7YnVxK1WtO/L5EVWfrV+kqTWQZMLFUtfKKA5fVQE+Bflnw3HJjEclSvRThS/8M4EmfTBFqTuyN6754MPdp+p0j+TyZ/gLFGVP1TSxA9RVILUPZouPVkahtd5d/1xVyPVh+yP3bFXrBnhGSPzTTX80wtr7VkUQniBn9PD+0W+w3UtcIYTBKLH2bjFsdqQlBHBn/gRpInGR3bOKtVih9AKIe+Je8jPkvvbS+RJ/1+LEUiC+i7Ezb9nTV635FmcnEToc6GFYIDBeIr/5IwVDrMwVi08DcO/oHqvQSt3BBBgAdBVoTCTuiUyKa7uMBM86sIr5LkYPa/pyV6Fk6sy7qkqFlpH+KJShWb48jItz+Osu5r96augKIHl7jll0FzJEKvkX2jzvDGTKqtZwbSR41oGxffOavqm7nvJh3F6G2h6ulPX5FhWH3oVup9Aih0fVZn6w1YuOVgeZAOuYILKNhlnsAnhTxZsgVbu8E8VQHPY0/PkzdL89u1UbiWKHNX238SbGL6k5QYdK3p/XnB9oyjuPfj16JHcErykrsvRmk1Vo5d5wFMBvKLy7oXdZjb+CPgOvbVr3kCFuI5wzVp/ta8hN0/QongBOtXWS7Klqvbt+xHG1S+LKhOBqFyNjeznMLL4MxBNB3ua8+TZxjhF5ga+OPZ7Cw3WRCgXXXRESmfALBLK3iW6FMfni5AIF/QBlGwx8COA8PZWabTQogpKNtA19hAYka+vrYqk7cC9l/F1LsKfnpQAoLQGXaiOZOoObvFza9mah3UO5HBQge6pKXOHXsOx961hG03pTVXqVBiQby01v2oae5xvv7HLfzzjKpOI2AUGlkxIrzuG361IH1k3Dz/8sii/qwudY7wXsiLDu+py5i7kglMNhFy3pC8BfUhNumedeZF0BCnm6nvNBE10dPUIitZcHbvduLnVg0za1PwpRMTZRDCsMpqxNUNlTNa+nKGY8V7B5k5YnhvHqL4lfS2HD412+0Z8ZqMD96X05km0wlMkwEhsv2h6uVQ2vkKsDC9q7QSCegCRY7LbLWQiqqqARL5FL7GLf70eekUfqBt80unJ+ccUp5Yn7K0i7bYmlgpB2o+7qjFmUB4hVwk+E3OH3TiyHGzkqxUacSI72X3ahlbnDIvkdyzyBb44KBjKZR8ag/vv/e4aGW0l9xH6crfRvEWxuAgKDitafroQFJnOB5mvknGfwxgjEQymDb1+nyNYbrtlPH1S34iz1wZyeciHKYHp0f+3hlGnUgS12riE0uiCoaP2Zptad+bw88yFWlrahyfMgDEI5HIYx0GzkGvV5/9Uu1zLXpy/z0lTEcf75FVodSQfY+CPg5QjyyfreSs0zW5c6sDS0/pzo3mBmIYDbvFdg9TYixfcRmTdybhzpPgxjN35Jecld9z7UeXhGRBxz7QTEGWhUMt/eoI9Um4kIiWwiHzR8naFZAjB4GrFKyNlTNYP3/JmJIVZGg5ucjBPXGYZG7qVLEUQgXHtg89oV5+AK4lwwg4BOc5hGfuOKkAh4mYE6sFQcpDt49lStn0iQqp/oqP4azuJ7O51lVJ3uxE7EVm99yrWBltaduUYdvBn+eKIFwkt5crnEiWVTIo4PXmwx2Q3Rc+WnmSzgdG8wzaGow92lkqk1tAxaTxHKYK9YRuv9TZz/DPpHtRcH18ZURB5z9KvjTWPspH1YH+vi7zI2NbSXqmasDix6cSsOCi12rAe88V8VH60OKqXGh6EihE4HXyvL6KtVO5kQ/2MtlLgC13rpiq4wlud4Pz+T66lqDfI21ZG3oe8U2v1vsRv+D7Vb6Um4u0jBgnj882T3BqO958E7FKXKjLjT/9pYxvDHQx4bSJG7Yz0c4//YmHk52nQXchCBgGCBwkVBgx/NkQ+999XapDqwNHiILWllak1frXdX0ur8B1CXpEIoh8My1pOWFTHGRMsXjtGSGfFCqZvFDg/RuFO9VeoKuTsWP0Iic4ky1ZK+sFWHWu4qFgh1YCFeQZ+xvz8Ge+jy3bOwEUlfpbCM/aMvy2jJT4zHLSmOnRh3fnElk1oH6x5Aht97FG+EuLdIWptH++9q2/31YkPoyG2pAzA4S296Xopz9EOPleWkOrD423ArVBV3IBb3lIrEQQ+14jtn+EVUi4r0jEeapkSywqEKNbAmRnvvg1Nm4CDQ21KXHIeht45efaMxkRKW1KQ6sCwp7gAs7i4VplEdPB6Tq2n6n/Mu2TAW+iFdxBxAeX5Fefvr8cE7zWFqFTtCIlF8MRnWdGSxSg+i+QIryKbU1ubxR+POp8w0rhJndomwk0h/rXJMqvjoitTOQrr5MwCHiyoiEIvaH65pxnlSptZQkFwuyYoZIrlcyNWBfWkCAsEQ/FCoPXczjfbM/VIldpjVcY4pWjenImEAizN14RMiInDi6/Gfb9rRg4Fe7Ut1JY17X7Vib2P7XpHdB1OIIpjB+VdM4zixfoxv+2Mwxzrga1rJJFgv/GGUmc/Y0gJ89GtsVZ3t4ewRPU6Vs6EMVu4J6D3aOoe/CbFKoJ7nR67IA6EcDtPor9Xfk6Keb72/OKbsUVol9yzufDhXGwmZZgDXjeS1eez7PXiERNBHjKZhhsAYocRPwv75jsc7fVO7PHQsDQASNINpDDZb8DQj5g3H1I1uYsHhLs5jJd8AwHX1zfGZNHdO21zOU5Dayx35vKxpyGKVXiSuTG8MnQFcPk4DVAfXihTdMgmPcy/4vdfyxfmpT4UI0tO3M1LDqjGeJnzzSkFyuWyj9xN1o/7qcFk7LX0sEPgZ0zgWweEGsWo79Vcnv6q6AGRl00SpCGGG3jpEpx9m4FDh22Zah7n83xY6w1mQXC7DH73ydI/gjNIfbsxXasMn09iaqMdEDL98ZTX85SvltRMRpiWVbqkADZ7665XeEY0r3p/o0RbdAUT7R7/BVqfeIghVJ/+orQ4dhygA3NWUfP4Job8VC+0ewGI1NdtoCJpnPpoy8oAln3rqnr5qzbM4l1glmnMQ7SdiHlef7YcojKpsHgp1Xxu+jPXfy16A874t6Ys0QiIsSC6XR11PmV6LIIQFAhLlqi58kCef+WKFb2MaI92H49yre6WkHQxfesvFRqICQMbuGdLurUrdgQnJ5TL++7XdXymK2TVoOShcUkIYvMK/r12KYHODmHLvxjS+4Phd/kpkpQBgCUVyNU0M5CGL9jzPNpp3aUgul1X8HZ3GWIyTqJ+oU4fWeJqlN72Vuq2NdB9yT58tlBwHtj3RS2JW6iORXx3vVT5Xq3aELp5cs9MBmjt15m+Y7qLR41Q5pUdb/K+sryizCEK8jl0UTYk4edxwK4oviJktdnipQ+6hJG736nM5Dx77lRRsuQGgFJAB5Fz/h/gRElGVYDotda1DnU7B+cAyz0ZR/LFU1UEmJcdhamT2bsQKhZc8WZeZRn+92smEGCsCckvV6PDVVU63EmzprVQA/00uggXB4XSRY3VQCH5yuUTzR/zWn5rzz6+/3gqt7qxCx4JhhcM0te4q5ANOAxyPEwkv+TDTZRo9pRKIw8Sc4Ja7/TPneTTf4LDlE/LsclYJFWc8WAjgMrf1UwqSywXR7fzTiRZ+E4gjFIhVEibgcPH1NDXr30tYUnv+/onJM1umof+dStx6t+s58y85BxsCImwpOlwB/lBG88UZyHrfk+qMYVdTDcLhXLM7ID18cC2CSNvQ55G3qYsgPCk4cNPac/r8AjHiO6Zxi1wWg42AuZU4YVWKKwXh7gLGf7+U9dlL/sbK3bWwVcHPfDqzFD+TXF4ue1rvr1AGw52Jy0kr08kjmjZdO/XklYn8oyBTZzZZxiszaCD3/MpAs/EvZ4ktTZDl2Fde8sZODdGowZbt/teWf+DRU/xMWMDAlZfLyE921E4ipokB98MsjMmqTve1g+1vpKo0QMbOOIcf02UbhnNGbkVtf4GFGemsHgbiiCB3sWhfvaGo8UtBcrl05vMjPJ5/gpu4krq4n2M0fbW6CZ7hVkaqWs8zjO1svdkzPpC39Rvtvdx7LuauKbjSED3Jc4vOSJCqXRR1u2OEElv2oFv/8H8baLRNrMSVzNAYV+A7UXu9jxPL5ts0/vshBKfKSFHqVYaxnrg8GeSa7fDKiaopcz3iSRNx5UuAveMCq9dQyvVyTwhlsAX8QXWIk5fLw93nOW4g71QlmEbLTsKMjiEcztIbAaAcDsMY/ugR3JF85yZLuyxzivieHvHb81Fl+VtBfgtWBOA9fZWSu2t/duvYKtvFS6fm27QuscSVFOcztvQMc0PJA5DLb4nL0/j3yzC+AXCBQKHd8zAZY8sWIQaKi9eEjYB7XwpiRx3JazN2crno4r90DVJLCSWupDCBQBRf1Efi+PeLlYVJRpxEHWcYLXcXcfYZ6M/u8Ssw+5VT8Z4Wo8pQu4fOcIM8nF6Y8S88Xhc+KEguFweFQubl8mjvrQ4eYbMcNUDc+oROGkV2T/Aj5h84cmJF8gbDqPBvJiBQeF3NfHPRHoFsEIXdpQLwyLTNZXolUHBCAOdGXngcOTfWXJ5Ah4OXO7J38uqEnLiSG8mKmSian0WOlRhvzIJYYxfOP79sgxEKr6uvncnNHlnVieqAB5DnBcTs9KkhghUCOAqSywUkL5dfFdq8jUCEiqtiSk1oJ9trL3asCrlikWcoQLpNg4wQOr3NK8GGW+IK4Fx7pDp0kGuPYoHC6fwKjRcCuESZwk8ul3+RbbK95eqhPXElc82ONDcGy9zrIjGRXD7cfdhFX62Sa+bljRHKGxxrOaJwkyRMwpWb1AAspsFX82uvvjqKvQ3SvFz2dBcyduJKWsDgD6131zyx1Wc7xB8F4Sy2972zi6Z4BBgAAumbyzwHUySMedIYRPEAfMsLoTM6POo/0OqFdm8nEfTOQswgEC0QBIOS+FipOzgoFDlxJW9U+DYAI+wq/ZsJBADy2ZsCpDtQE3wAwyVuqXo0yZNZGAsgVGuOGOQi0NY0V6EhBHDpW4s/EhroyeUyU8O5LjQlE3riSmZqDYhBjK/u6MSezTktaZAz6l+3QCG3JBv28WSSnGuLUQE99MvGxVXtgEJDcrkY2NsIwuO8PTeDLO/f7q3WN7gtxcWzxcZ4gqlOU3N+TEDulR9mcYHcrfEiEIu59cizaeyxw8LxZLj7RHBHcskhuTt2k6KfsdK//cY0MWBv4+uDG8418vVUBrZQBkNOXEk7mZYcrdNoVkucVsHEOCi0v9GYRW34/EFXyNMqhlfGGa+OPaEVouNXdvu4pJT22u6v13yLw08ulx+mN5zrUdvDlShXuNZlirupKt35XDxgXh22QIFOno+hrMI5/L4EkC+drJh55W+jiU/yjLY/jgrIOVaq0JZxiY86HnOqcqYguVy+7nq6Dx+YuJKBOIKeuJK7gAetAUSU9FYqqzh53iC/Z5Fj5VZU9m/kGQA2HU+6iiUAi0n/XuuXqbM5cLc+GvGHTK5uI9FCq580nGup9vKM4IzIiSsZhMP5B+4iaBZkb+jkyuGwiicb5ELu+JVbdMcDcE+f9qyN4Ul79v4PiPFDwrbMzaKhDWwCggnDuYY/eudzPk1D4kpC8ru75PkN213MjMI5/GUbjABIQYy+SuUV5wMAe2awjibNqcsKR8R/+N6l8WisZ52C5HKZi+KJo6inwsVs6AyrPN3XoH06TGzssPq0M38zisFWC2VxQwHIbUpe+RkDqGJPqRuDJo03cY78oFNvpWo0lkmV7dDPkuPWQA1AI1fiSoLvRvmjEDF+SNSeuSlAqjr/6Pn7bptbiRZQEaRLpdZfnefITw5R6fnxKSrbRfIEULJ702lERKxYTSauJDRdT/ldQZzH9bfZxPjPBzCMLNS5hpvIx0FGgmwkV39jhkBigumMymi3TaOynRQXVN1BY6XucAzF3MrAKSzIlcNhEw8BDCASV7gVE/amZZ5jqYcmVcGDvAL1bygemAvO4Yeosh1y4kpedo5+OLY2BuEJMX/dlExMYrPI7hdALOfjVk4OWrzywPXSgbDZkbraTQe1mAGn9Sdu4krWR86Zq96LnbEzugUKG6Ink3gVzh4BKgHv8MuorXZeerAmi8hA2CynsMbiwVS2i2Czo0I6jxI2Aim0+Vd4znojr629Un91Monq4A5gQ7e41pHPPE0M/6UFREbb/FOB1X8IqwMhcuJKTiQNGb351q+YwaD28mARI91ncnx6ALT24xWpE7xC2H8kA2EsTn/LgkeAKtuh64pVHdxRldp4FUyjglw5HBbx2YaqQHgxgWv3xGuWbpNHn5a88WIInb7SQAp+crlQn03uugjEoNwd68oBNEx+EcpkBvH34arTnUHcSJBPALe7/VGo7eHiVyJ12dgrBluVF7SUQCXGQaVU9rU4s7xcJm/9id2KLF6iWtLXKnLr1HJv8MdglVw5HAZRH40Q6t17oxfEGY1ftde8xLxMJGmIRV8oJMZGIhJJ/D7PhIXEQXjspnYbqhJMZ+We8FoDLTNJq5l4sQSoBrZY5t3Yw5k4iTIUcha41RZMxoz06lO1gyTNt4k43DvuwCncXciaRMqR9tydopjuUrpS+KFQhmY5qOEfdCZWrA9gKHGu7KEmtPtCgaoo5KJVOvKZsyNrJ28IluPPRp7H9S9PapIpo/13Mi+XKVw6Gy0Q35HV5gAZvGlQw2H0Y+Yw2O6R8wJi7k2QqSWOpZ6Q19AGYXn55PeJ23j+E0nlJedQ5yl1rcF0SltyueiqnUSKHR7ZjpfRr+ftCO4Idt6+0OpYg6f4aH0MsE+jm0GgMrBzLU2JvWZ7JGON7q1UG4GQn/CtuTg1igpQXi5TdT5N+MJRilJ3PuXDGh6TaR+VKJ/guglS88yWAiQ4Pu1EMJ3xK/9HfFfHXuS5s7EAPf2pfIBAWm4jmZo9VYKeU+ERHF57cSwhf7BlGSyk5qRq7q5lDGPfb9qG1kFeq2yj5Zdh9NmAp1cBdPaEI8fCOSO5vNLcPadJrTysCR2RXH6UigVdBOJw/p5Fbp461Omlx2swjYK2VzOydMv+0Y8tPIDYhOJ+yrFQsNcc51Vcq8KR0d5LnkGkghYjIuHzctlNgRLBCfKp7eGa1zBZqrs6o/gCuHdfb6Z22WYKN8NZDOQ1MxJlaolrAyfCq+5LrxT0Zv2IQd4zmxTz9so5/OFnT5VbCWWwSv+Gmygw8+3ZO3l9Brfuw0jf1M7hxxLGBl+mZoHZgbJAIceCvaPfjr1Mo0wU8ZBrSCJCGEyaHh9fb07EeInE7CxEF08nwlm6rSGy3VeruWaLkLg+RqpKzzOEzerQAbJO8Z7i2PhxzZzndQYn4Phj0aFXiFdLtqfzM5/iZU+VMINArFA0JRKu+Psvyr3bDLXaAej6iCFsAaV9mhk4lHsCz5yX0NbrpJ0LR6rOdvLc7bRAYUM0ahItm/2vLf/A2QhEuHGUCC49Xo/h7i833KTYRTnTFCMGyNR7dnA9QTapMB9+YUzmUpqQZyrAe92WONKUTOSxgFwoca6aZMuyKy+XDfBtGFYEStvQ3YXsQf1RO/MZTUs8b6JMjQ0+ZjD+8+VZ3DMdhMXio5XTw2Hzw4F+HDsACZzCIHqkSLe81xCLj+8YwEKRIudF3dW5i+t0zYJ9h6fNpXfCKz+swPnnVx3c/RBI5X6SdUW9vLcekWIcr5xnsN3JLbk1TknbB1rHQFW2U0UQgRRY/Qw63kfTuhZhdeyiGO09rKD17nINbWYQdoocK88cFDwf4HvriRUFGBQZ7b/kgnVEEJ5IPKElVm/C5eWy8IWCpNW5PXujviHHB1/T7UU6EDkARtsgI1iKYHOg106EMdlAo3JuCNN5x7OhyKOM7YV8p3ql7jpq2IWKvFyG2IZYCGPxqrMd9Qy+c/gD0GIeQDkcNjDQ6vESqUOlhVOZO2g842zsLS4VhWIqca4LAE4DpWAfho68XCY3zCVnx/bVG0JGblCV+Hv/6O8/gjuygeH3nqqcodx4aETOC64NdM+oSxn00VJF+5kj8cYJJQt0fDr5A2Glb3ElTqKa09ePmqvgOV0T3SoYoTgotNwb9v28LGAtS7tAhdVVv+zKsHBO38KcVwdFuosZQIFCG5H0lCsT6tktZekMgfecVCWYxso8Yfij4zZBS1yZfWFQoHuycVIdUwYw2ntzd+0VHSxK5Gs8HwSyAESRLwCS488CBoyIavL479eSSgmyyRcKxEz1hs/YXsiGQ5sUrGy7nCBVzam0rmkM4Eau2YKF68d9/7DG51swvV7jCylKTX5HkaExrNAre+TzqQ7uLpXtZiIUKZovGqLnB7h5Oxc8zRR09cYj2Hwyh81ZwI1cs4OLwJEPYLi7OgnH7DL2Ljf6cRwjKFwgJ4zFmZGrhZsDzVZo9wfNy2XVbSOSj1EPM431XhqsVrUTSYHNu1IFgwmMfD45O3ZFhXPeVW+lalxjfD/vktbMQ/Ce78CKzpJcSV/uesrpW4s/Ek17qkv4wlDK+tyRz8u4eTBohSMKFNWZzAl7JrD3vWdqNFz8X3TLJKwMbBrfOFcke1eA0jGkr1YhEgOCKQ6TGh+8jYnkysvlA4UihbPHmvMDy1q9qZl0nrdng/AYfSMrsSLZeBM/0DQ28KdkxbwDKN0paXXmXCJb6v3Z23QLpcFlVxvhs5wtWa42/PFU+LcwJlsUk3+cA6dwntmiDnSZSxN5JUmB4ncVvuA6ys8Iugs5VigVHe7lspMI70YbX0kj71M8EEO28/cdRJqrMcYhFdt99ZZncUF44t4zNqwkSNWkEsFofNAYj3Eiia6gpTsIjw+/cP75aYzAOfyab9N5Afg1ZYV7iZFQJd37uO5EgwvFVETGlsZXQ5m+7Kl6J5zN/4OR7oOcp6GGjrzWCocp63N77p7XNEbwvNK/uVyOBkjSyrSlcY7dZXgfPpYvhvTX678vyHFQKHssiVwaeusezKP2hVZnI1EVfVw0TxkQgKxAzzFZUAXVRDCVHhgkRJ55DcQAnC4JByhITUUTEJR5No0fZeTrqQoe6N4EcivBdHbc1Rk4K/B05HOcRO1Afi6qb6pO923uRebzzQ3Bkaah+OPxHUUhtx2FJY6kxs9PXAB7c8lbqWQbjSsCNsxgqfJ0d1AobCs2E2DI1Jld/kUdL8wQaPdDkY7c/b1QyE+Nc0J9L8+/wXe6pphLXJla7y9X7S9WsHkhfVMDd5YiovmCg2nOsDe3IeAPL8KQMxCBOxLJipkLsSUcajeXKmjTJ4MCUkSpXHJUmMFuzflxa2rDVMBtcTAHs4b/ARuEtlkeZ4r4M/ooAtDoNvu5UXt5RM6Pj9HtUZ1iOBsz8DxMU+u/FcAvmxUOqwKbh38kVDMMSN4tg5b0BRHeNpGxvfzIeFZvn9hA38iLyQHgyg72dnqJO4AbFKM/zt21B6pVxzXXqAYaBv5iFDMdfn9OeQEIxBG2OyHO01upOSYTiMXYGzEsUDjFEFVmsFR/fUYLBHyjFz15dTrGx8wvrQAVMnX++YEksqH6rbRtO8DPR/MQOkVXVdwEGKYYjEw5wI5YtsIR/MsoTnFxRCYkvbmhyDme9FDMH2RREYDF7L55qT4SowUS26QA9+ToPdk/+mnM4MeO7J2+qTGsdDSC6aw9e2s8ZHs5hkIDBLqHoP7AqYqU9XmJzcy7svAP3VDN81NacrKC568yNEsgnmD0ZyCCcPgfuHjRK8zea0M5D8erxizzBBMQ6BAuzZVQesPTli2H6JbvWcBgoiWn6/whK3jYlEynA7BYdaPovFR1tvMx5/dKRrLBONBQFOkpVzuZCIh3VcyiZHCvqpcq/m3oWe0oFkKZvPzf7hoPs4zAOfwNtPrFOIm6Jdw49ieXHq8/alykZkPDYfk/KLLv90vf1BDoZjAoda0exvK8MZ4oGNcMp3LN7s89GiMY7b3t2Ttvz4Ux2RWk2Ju4LVBYYPW8TNSTjVkMBz8uCseWk6wIqCoKQLMwmNHnxxT5Sn4ojL4Rl4OA5jWNCTzpKeVy7xYvUfcVrFdR/SF31/IyRX2i3psNyI0SUGT484kRCC/Ir2WqSh+HgC1yENFHa1X91bGkaQxg+3h3sVT4tqSVyUYgjw20Zqnq62yT5WYGJDTvZ0iiV4XkrTEA6S5Znas629nZkrM6uFNg6nUwnU063Ev6jP9+g+3ekrqKDn28RAbhiRk4YJoHpL7O0i5bGi/55kBDwidKQZH+1zbV/cjkw6eWkW4qHv/5WlIpQa58oUBQEXItieNZGnhtLemr1B1SlDqUyf0Q0AcweFG/uag/5BjNSPfh5iW8KhuUCaNQxFNw4GZhvtumKCbyvzaM6P/nvsB+1EbiytR6d32jadIiU7MsT3tgff1SX6W2plPl6Z6zY+Ml6twtE2Awpo1IE9Kz5e7a0d7D0QQnizMsaZORHHkMO5EIGNl4Ja7AvjOsJ0ucK3p2c4nHkdyx5vxwyemVGumb+uHu2qWT/Y3W81Lac3dTIlafH8XONVu/JC2riLnRTiR+CHh2z/jgpcD/lMIKgwU2z9P8Tm0WaVh4BV8ce8DONhogZSUCcaQ5GSUIeFYwP8N+lGKn0CLH6krWMMnhMz6cilmUMUIZxRcR3PGqg0JPPd0wg8DsnvHB6xUqFeqeCn8kKnWF8cHL0Yvz89nAdI6QKNr5eAMNewTxlTS6hEF1GQ56lx5PMzTLZJabSw9F7Pn7P+X1GkK4SZ4PoyLqxVWNo0TUNzQ1DoYjq1naBWofM2ltHn7v7NrIjPTTwIhN/XNNkyCUKkEfTGefvODrsAPJMzT8+U6Joh35HITHMDP9Wa7Zsqo61PVyTwidpvgtOcNn+aeuOExzAl2Jmh/bc3mTqxf7vtjg1Efyx/lso4X6pmuFgefL0gQga9XRR+KJbiOQyVxP4AXqs+TVibcj2Cj3zZlp8qPWXSxQAxRCBGBwXfhgj3jq5Y58TlPNt9A3cuvtzsf7kabxAmGFw1yzu8TfvL1mJsqPzuHv9CJY3ug1JyJj2OxvtPx9byMQN/ZG7kxxAD43EHYSqTrdJzfJ3etU+VHrr9ewGSagflmDpxlbjBwb/nxcozUAP1AH5d5wTNO4gboQvSBOezTe4nc6n6DGuSSSVvzbXDkBBaWsG0Nk8Iz/vK5RlWCgB9RiMkiQ/ED8dabODDQbjzO+tIZPwCv4Islw94kTSaEwdnrhGleHFAS+ZNKJorSTtqGlgy4cVHpvl8MX359mHyEkQCLpf+iPRircRJN3e1GVpCuy+x38lpzRvLHu6hzrv1KocpC8Onml49GBRPnU+ZSdf34ahylY6DMU9sFz6lYB/tqGMFhLKm1LntGvpzp0uMzOwg+O71CnS8XcEamstRFIyfHqGmkCPObX0zyC6Q09KXbvI2DyKAkHmTRETom3I9n38/1ufQ69Jef3WQbTU64eiQg2f2lIY+2VBJlqz96H+XxJqco+BMD7cTyHQWAOUCeRQByuDOxSHmSCnp6X8t336BuZS1yeWtMXRa8bwMiEkQBu3UGlZZ7wrcbpMv7LfYoMgEaTpVSV1hW4yQ8BC61uTbIMvfVzwTSqYG/EBASRHF4TOlyZlSoVOvP3U9jmmmiJqfC1y+0SvKZetE/Bj8Pzzqd1l0rINBOQ4ju+vjg9UrITNYovsJWkE7qdQj8ebDZJmcIMMxK90NXgmOEgS+OnUEMfAzCaJfFc5QtDgH/N9IUYgWjP3R4J1odvz1zJitllzzEN451XSpR5twXal5SfSl3hgMC4cjp9amv7HIDkbDzZfT0L+nvsoNCqs0NqzcM8N3N3Lf64JLZAQfySakomqdXZzDEaQfeSHkQguTvWFQponrMyAPgc3ChUoml/rUZwR9DffXE3W78MNLu0WnJOmJ1FQ2h5JHeiaXzwJsqUl+YlEYDFGVvL5Bhj5DmhI9kHKeuN6a0GDMRi0LeruhjFF83JJB1BHk8aYtEVIWr05OLIP/D9jbYtxaE8Re+SOwCNUlW67eEa//n4P+wSfBIGKCueOP9/xc4VOOUZxLX8ffefS0RU21kKnIT+mzS1PirFRuddhXJPUPs899I3dev99YHG+2L9es1HAVz9JJ6upanmWWgRn9F80XgT10mgKOdG8J15/1GMUB6n7qg0umsYkT8XTRODnUiy9KY9e8/wHvyVwuCjpP26RNT+eo3iCQF+BDtTZ3peConYLWpybgQ99HkLodN0MvR5kqTA6mk8K65OhHwujMkKbL67VFY1OVB6RPosPCxfImrbw+0gE+g3rttVZZvIChsqcm4EP0SJP+fumL5K8WjSZD1xefLSd3/dD43jJfJPv3qhyYKSvzr2YQYfDVP2j77ai+OpgK9vQTieAbBzbiRDY54KHVtsfvLa3Ja5VyXs6E7K7imMK8ezDabl7hr9ejS5UFq39WkAsDKJqat3flLh60X6QkGcWNVdnXT2+TPY6sUO76BQnYLBSUZ1r5IQqX1O1RoTEAQRSNLqVB3c+1/bsiYfyvVsPg13i8d1OO7fmEBAR/h26QuDcRJVFz6pU4l0+2RlYI+cG2kYRGzS1ma+xBUWaFrz9/HSqewkdBfLE01OlPhG7OPkPLNE1WMpynkB5ZjRXIxAbN720FT/tPelFB+tEWxuhkB0SaQBGJylM7seTcqsJ63OdNyiGsICHuwkcqHMs3UV8pImM8rxjuQ5qHJLkRxhkHiJQvqlN4NBGIsXWH3Xc16n5KzZWksqZWqNg0RMgAFdbffLCfJpItTVUk+ovmAqFRS40c1Y9EehcPb4bc350Vupk4+XGTiD2Qg4VKzE1fXoBeFGam+oBOFw8rquvTwHW805/PBrcvYUc+nJFrso/JBIYL8PxdEIzlgdPNY0qZeGWLys4+7dGOLxiTAm/7nMHV7t7fRHmhwpQPuLGwOA9PkksnYX87sC7RunBQpDmTzbaJuSaajTncMf5o5yb7VWn+3Ja5ONgHe82Ae1VN1OIpOho5c6nhyTFXiP9Yqdu3YyjRGITJ2p9G/t2fvkvp9XkytlQYYxwN9eIpG1I5/DZ7lAdGeqFQbD2TzbZBticeC1obwLtte2Knxb8upkJ9M7XkFBigdkbOnPWCBD6HoEd4S9RVeFMLxeQ3l2NwiPw1g8QaqeVPhCSyr11epI732hyZiSCcSyURD2NEmmpCjqnrG/8IXCYDpLUczlntCevYc6fR70tqULDdGYt+cWA6ewCQi8FPjbyJg6xMoYQMvdBfGsqnAVVVkwAQYzcLjjCwV+SBSIRXYSCWOy6AWRtDJl6ZaPq0NHS/raHer08e/Xo8md0rvMOOBgJ9YJ7+HeiaNK4SyeqtKlrrX5NvVV68jXswxw3+dD7daZzzUXR+6ujRNJO4lYoFCd8ngKhlhZpX9jhJ0R2wCDB0f1R8IsnbmXZ3HXrhXafPHRWuIK5b7tdt11bEqmtszdVSh99Xby4fjv59HkUbFXMox0RrIxul6K5I4C/eyPd9YKg3YyieaLtA1ddLjWhs9XN/e+9aV555/fTAyzGh98w91noNm2muKx3LflmGyCbApl8vt3BOnzQro0YTJdq9jA9Xvk171RPAGkvo1MubexYOkl8bW7WKIXhE5DzWjXV9M7fkhkI5FwFo8VyZT1OdtgCq3+H6rO9rqrs/EmttymllRqe7jaM9eny82JWB+JNedHhTcUO3yu2aVv6gSZipofg2ksAIt9ocAEGITXcFMj588PDlNVuuMxP2Jo1PtFttE4hz/ZxhKXscCN4iW+9lVK/JI6IBn4aDi/6/UKdcEMHP7t+5fnrAh0fuPyTytmEFhUpvzPUOWuMsMMBjGLsiF6jn2/DGkBn6VbBIC6PXWXh2y7hI5ko6EcYCTC/ipFqR+r1DVp0nXVtZ5K+QSzIQw2kaZsTGkrG0KnAqBD295KlW0MKTce+FrhKM8WkByjcQ1ZYMkU9JacObv2m22NJVT6t9e6Qp4++7tyjfAtsRExGGiTGLtU4lz90UgyE3bfmF+9Yoycv4dxEuUFMCCt9HiVbfOjtTUm3GeTKDtfe3k4yIR9kzADh1O14ZM5ytU2p67zKkQqz8k2nt9tTPBz+0mUXX07iicUnW1LioPGfhhqd/a0fYdITgPvhyOfj1wjdwAbFYGrkkjbX69pqnmFYSvVqcOnlTl0PWcQ84kLbV62zT+60LjgGZkSaUe+3uKj9Zpg1kb+ydXJYU7LHJzDL89sFQj3H7+Sa8S8PBsZYduTWDvfdBMjOFxRaX0U/nDk/YxNkTeHaLFtfHhGrvG0MmODATJcom1ftbpMiGXPo/SdQpv/FavUtv69Qo5p4l986GXbM6/ARsfgKhJvj1cEdgeVqmzZmC78kWhyeC+zid5yhUgGTBE4hTvzt1zjq9saH24A6pjPYbbO55y0OsPXe6E9uYU+YJYkIefwy9/3rgD8AlR0Geu/Mg0daHAbH9w5QGLuWrl3u6KrrFgyAYZbFf6dYco/dhcyiKIZZjCoCmxybV5Qn42QjPMhP93ouorlbSscCjYQRCB5Ftdfq9sas/gxS29APgsv9zeaXOOdM4wRRn9GTC59HMEdTcBBMAATEBQdeqbJ+2u9v0AS9lPNNpjDMg2A68ZGSY3JEnsHmr3A5m1EoqvSvx6zIFg2jA3XEldmkMuJ1vtbrs175BknfLggia0zyduT9E19QvKJsKI//pvD7KI6uM9BfNIaCVI12n9lGkEt2EgJmy7xd3zwNidigmzyhUGpLwgbgXRkb3bV352UHgcghaEmtMu1+fbKjBXeWb4kgKNfT93VGbsoXfl5Le0pUa7OsOoxOTvWBBhgxk3YSZlGflU2Whp2kSRwuPvUXJyxi0LaC7oFDEpPgodRprT6YzDIkcudEucq1+ZrKzZeGKgCRiUR3tReHHFiaYVBoVI4Y/xQ0RlstWi+ALmIYBrtq1aZhnNNmhFzo6+WVHDk622IxeTVyaMK6U7xEsmiWHOu5u7aRQWk5Fmcc/STa3JV+rER435/uySDY4Ov7eHOMhgHhewYqlSfMN/iGNSJVX0kThl3XgAyDbuLRaZdrL/sNmZ46Y9LQnikt1JLXSGaL+4KaR59F/5IVHd1sqdpJ5Bv2PQck1mWaYyfwEYNAO6nS0q4f/Qb7j5NiZSpWVbueIUUp5BptsUYRj6fFMWsw7xaQQTS+ZTlWquRM9mMG67fSRLDI331VnW2J61ONgKe7DZPcg23L59ky4tf5Fih3BCbY7JHZBqdAFc2ciwrk/RwfPB2l0q5NyQuTzYiMYOAQc13eqgjfvpOlm4Z670sof76dCWnrZy9XW7NZexwhXkQTBGf9LyUi2mq+V/9rY7/tKrwKn4I+PkC0P+iLxSUHK/z7KAzf0ONrpbf51ucXGs1EjGAjZ6MXpIorg60elMiFRy4OLG0EYmrs1uszehuw6tsOCg0QaqK7P7TpmSCymRR4Y/GNReHhxmuI4gRCBXq2INcOycul2QYP7yiXIm+JG6y6CnXrXyLjV9SwVRqRaAdwyuEDq1phRk4/Af/KnFlKrT5xnjsq7exwbepLefvO9PEAJZxe83JxIq+j1KUegHKmealrnVTppHUik2AwCaSNHrGvt9PW+6uct+WpV1ihTKYRv3RyAIGitfrJbQTXFeF8HrF1+cCsDiUwY7nmMzv/rPBVhsffAfIWOivt98YYBY5saEe21KO0QAFm0ExTg21m1ybNwk0BbhVkiSPh8d6z8Bra8/l2quz2OEzNEu8RIazuZ1E/NFo7tmC6p1aDDFZjAP+J3QTYDCDgRUGAzDYQaURcyJRrr4rdYeGyNn5lAfb/clBdt8rAzuYLr8igjOywBEx4z/fg5+A1qm+MFR7cWgybm4iL0Ry+b3rfdXakbsb46k6dJS4Qp7FZWqXFOWcIFUxizJyXoSz+W9C6CyETifLRtgsj2DzKN4YK5KJ8ilVpbP0puDAlZ2E2ouj+Ta97m+04e4zPnidw29GZ5kTpEqAfVuI4gvp+xx9tcwTrroVGNzJq9No75Vzc1N5oZXbzuH349jgW1o7NtR5Bpp9sgw022Cr7e30S6Nfz9LzVefwt3/0I9MSFDBpz2MXhdQ7kD5SebqDZSK5CMLj9swl5+Ym80Jd5/PMdlEBK7FC0Vsu0r5Une5vCQWInfwD/0jOzTF6QXqCAUZyuYCbonljdyEz8SIi58aBZjvUmTNHb4y8aPXXpx8SwZ1dVyO4o3Q7kf6m4t8Gd1H9EKj+6tRkm+DhQNOBB0SQl/Gf77sFRYFzKH1LKnmkyfj3e+484E5MpmYZH7xyjYjXZhMiA2ih70t/vX4lACc7idRdHpJsk7GWv+8Aw2Ahwli8t1o1ucbUDMODa0dPJ/qmhujpj0Iq4PRWqTvsStAQ1QzNcgXuol6VbafEZcDp2KSw7E0nL6t5ZmsCAlD3IGcbzK8l50TDBPlkAgyqAsZClm75QK6hz7aYFhw3nr4veqxYgXq3eydBqrqLWVK8aElfX03qlwb3jLKtYy4ZG8ImhuOX7fRN7dnbTqYCtP1JKIPVR+OqhAxlrfDvNgIRoIb6NcWjJtewAtBhanC/r6YvnsrABpvPuRPpP1dg9ZJx8NPpbL3ZAP2QM4NBkWM9It+UMAN4bHJoazK2NsbliYSHbIPZAU6ylQSp6njMHkncrfX+ihEI13NAkrQ2v9bkGr6300wPTu9CX7ShdouTKFg/nOvCTqbl3rBGPyPdp8QVXKFmAN1redlTLppsY2212RStCgwSOHU95xAGE9DaaCStTNcpl0vkHP06Hu/E5Qk4XJAiEIsb40mTbeQfi02SSdMJjNYQi/eAJ118WOxYhzqdaiXfS5zrh8C5paX6QkHpSXgk39hed9OEHxdDYA6XebfJrCAAfspogWyInLvU1pN9HiNU0N6R0BezdGZJk20EvTebKAA2mcIv7+WaLXzOYQs/BExV6Y7cPXNRptjBnf87AS5+9c3QW9fkG80A3FThbokUTsPdJ1WtZ8EnVQ3C4RyT6Slm6rbh6a/X/w3BX7p7xofve16KJt9InMcmS+ASCqMNNlu8RKoYCv87yCR/z/W8VKoWPL8qPV5DGQzBTWbCQaFT4kch40QwmK6nG0Xi1FsuUfOjQDGM/nXenut+zqvUnAn/s3MvMazLFYFTuD4S949+Mo5Ob84mDAAAaCdx6szf5wWOcR42AsnULq3311j/oULiQnexFBy4EAZ7jPJh5odElYF9WZNvWBfbTBmuNovEaLddI4MYZUH1R6NEmaoJ7YOt/gK5w9CRz6c5mdK3FxuR4Hh5c8/E4AuDJcfhR03GMbAfm7YA6U9iNltu02skFwKohgUCwlg8z2xvb23jdSrYUypl7hCzKP0Q0C1wfuD3C6z+uSbjyF+BTZzuz0zjl+3GeLSTiEBTXVjxR6EYoSx2rh+veTDW9FZr1dmesjbZiMQEBFidjqkrh8f6rybnmL4+U4c/PJ7GydN4ExcNRPsWTYDhWsyiLLD55tQ12O6roEfjtjqfS4VvS16bJ6zLxXOnuXonx2hG+68m5wj9AzZ50u4kiZzuvhYKXnHvGfsrVgQKY7I0tS73bu2Za+itj/98ELv/j7Z6SqXu8sg1mWiBCJzCJhAwEPv7Vc0QmK03W5qsY3eRhsD4O8LuROS0vTw1/viIDzdMQPD0VvLqVGjzdVfn2V8en9+caQ218cE7/N57yrU5mco8W4ZmieKLIAJZceOq0aGu5Jrd6NejyToKBrACAABA4CRy2rzt2ihycRteZSUAg0OmWaxIpm/qAquv8O8N0Xi7q5D7avXVseHuszbae288PDP88ex96wONtvugKZlqQnuxc80ymMTlKYLNbQRshcEJFyqgd8jvnsu3WHl3q7Svy6YE8OB7SSp7NnJe6FTY+2B4vfpRyyT0Q8BAHLaTaQidhbN4JJdH88fYRXE2RiAi58bDoQzmoFIbHj/dMIOBIrxeKkaBwtWiQz/2/WryjqHVWBlcXRGZU0+5xovlgk6NGaqqEIYxbee91BgaIgLQqNwT1jV5R9HNWCEob0ZmtN+mKmczCKiMM3HRRiQ158e8JvNolqMUcM9cOqfh7pO7azcEy3C/aU5EjybzSHoUKwauM1npnMa+vzJPCMQiwS7Tcn0AQ8yCcOlSJ/Ow1nIpB9yvJp3RnP+/hlgMYTCVVWvvpK7P/Y2myT4GbouVxBMVETrtH/2+jRMrE2BQmfQcfkhUcODOaLIPoH9nrCiUT/YQAvf2k20wVhgUDLo4yKQmuE9uUgY+RllsBfSSOo0Nvk+PsmZSTRNDzKJ0+Y9V/hHxJFYYbAB0kjp5lFixMgEBUxbEm2yD+aUmA4t9XRalgWs3lbR2qNPz9pw/ChkMMUU1mEarg/sHmhxk0RxWHh8XSuy07+c9HsEZZ92MWHsnaWX6bFuTg5S8NysQaU10SWz7Gy1Lb84bTFhrI5JS17qlycPy6ZFKBIdkURttfPDVR+PFRSH5tWYITJSpB87hp8lDEhayIqGt4C/J7W/zLS5wCkvbGj5VdVBpmWc7o8nE4v/TmjLBR/pheqPNt97fCfKJJPjjkvCPuyvcxXKRc4WxUtk3QBLcrarT7aVUHySeRfNF/fX5niYbS0ErViwAsCPkY1aQbuYKFVj9RBdaElwQs8F0Njm2WWQjvsttygWPe2bagTnEkjO1JhCLhFtiS2oQnuTsWNfAwZSRHG8cK5kj21AO5DEImKrWT/eMD0JCS+J++vbS8XivanKy/ElHVjRcZ3NKovtBy21KUUyuBckspap16921rsnKYn/+DGWDAaOfl2R3tzWd0tT6ohQ2J/SLaRv63geazCw/34GVTiA2UdLd9fbs/cZOoS536NJ91sw0MdhJhNA/7nLN6xAzWPHIuJ9dEt75npdS5Fgj2NwChfQ+tWpYwOBloc1P+sddbmKfHV0R5VtFej0nay7OExdnaby7bigBaJQgVdVn+2CrOYc/TYaWpoO5goq5ivD/0Hc85v8tgjtaYdAt6FohxE9hTJ5rdm2ZW9L9eqD2eMJ9OCsiGWeyS+rr2dvpjbGYqTMbPwlaVuhCmMHAQaFpal0XPgdb3dVERJZi31t0RZRxlQpwfqDZ6q5jhmYJnWETWTtsqBS409wCAQ4qTVmfb/dV6wVNthaA7cBKad0/karA+cFma7yJubs2iicCMNgEBALvJl0Ys7fCZ/n/Unt59NXbuiZjS/bJWDFxARAYlSpBz3D36Xy8K7whTT2Hsbg/Eh0VXqHDd6k7a4XBYCpNXJ6Kj9Z7Q53+SJO1xbnYpZzwuF1JFeHq0Ftvz1wVvi1je4niiSACmVvYMzYAhYFZF4ZX/+j++WTFXHy0NidTf6NN8Xe9vGU6oMdKas9Ub0D02iVnesq1MR5LXCF9e4kRymA6C0AjCxSaAIN7Sv+Zqq4f1LZctzC8XqGYweCWnUgiuePnBVb/cedTHur0Kd/cZS8Rj2JFxXG7fKk+PDzaewaa7XVDLJZ7Q57Zpqp1nFiGc8ZgGg3C4//gzTkzCCweYDrX7KIZOFjAYM4PAQOw2E6moUwevSCSVqcsvSl2rrXnR9vD1Vetwx/PqiaXS0o7m7LCR5osVYvLY/332MBr63kpHfnckkoNkfPXlad7hS+UHq8lx+tkKTsJlf+26uBRd302JdPb3YX8Yuitr43/ftuavC7NwlhpBVwTpNnD5qdjxUW7WYy5g6CdacoLR57Pat5Af+dIVmJvtMi8QZd+rMyerI05gz8BYlmhsSxPMV8QfjmLUsOTepgvaDaJldvOrc0VZNVnBUfrGm+eIB7I1ZQcDtyb0xyBc3YgK7sNAcYcwZBiVnpfe7z5gdgVseKj3azE3EDmztzKDxcOMjNs41xZGmNg8a3MURuxwKqH5uYEfvy1GQm0BhPNCGfE52pYwNGLgVFzAb77C2Q87D7ZXECP9TEmxs0yDzAwhHGxeq45gKQZjAy2hwH94p+ofVmwgfM2Zhf92M9n4Hlrw8peNncl+nnmDoyRb95a8De/8NyMk0Bytsgnu4WGFJY1RQn8HD7exVhZQ9xnYF+Sx3hZ/NainjrpjJmjZwn6cmudGTfrpop4Ir6dkcNxrRLxTsm1HNjB0evKF+2kLA5k/DxSPatYx3qnIzGGzhki1tnVYMbR0TVFOrPqM5bOGyXO6TSP0cTdIFGUs6m5bjxh15qCxDhFH+9iTI2sFS7Eg1CYXYNxtWx3Anx/1lVNYmydI8CrkdSZw/g6YZHoZkwcY+zVlgnuNpL6MspoJysQ2RS8sYYz7G6QLa5JnOtgrHX9tLCu8Fny+S7G28LLCerWDqNaFjLm5g0S0mVewv9RMuPukYBWAd2EqR2gwxh7x/URzgXZrL9+IMbfwSN0wRzje522TAEB/tPEMr0PxTRw9BihHLZ/Z6aCMweKY15/ANPBKcuEceHynkwJRwriCGdjO2qkQKseIIIJ+HCNaaH7cKniF78WbqaGjq5JwjdCqwY2poe2uW0Eb1AZwyosFElVE4VuRe1jWZgmuo6VKHIXFzNdktBdKJME7kKbJGwX6iRBu9AnCdmFQknALhRKVdsI1SIu13IxjbTNFajFU5OGWZhK2samCtPqIg1sTCcdhxOkVT4DWjiYUrrfOFaINr0ww8G0Upu3TIA2kNRRY3I5ZZbwDDK4J1PMmYKzaeIxA5hmLnyawOwZRJ82mqnmlz9IWPbhZX3rL2e6OQcQCsprq3dubjBTznFNhGS/2OELDsS080izBWQEC1GDwph61lguHGNNKXn/PKafgRv6E8FYAeynA5mCWroKxULnAQ0sTEPd395aHLLsZA6motqKmgrCUi/6oqtpTEiXjhCCYSHZ33oC09Lap0oRgBeotbvaTE3D9hYk/C7AoVYZ09PIfQm+dkwT1xTJFNU1dr7IY1SDDKap7m57EnfUbORmsrqwjqDbo/VWo5mydnj7fBFHfr3aTFtzLhYq3gi9WA5T18CdFYg2UqsGMn11jKwp1Aqo6rM6OpjExj3IKdCKoY4IYSrb8P8MF2ZNqfRqyHS2BlAlyLrR/ZN91WBKa3n5owmxStqXsjCt1erfSnhl4dzV6TQmt8VTi8QWw3ulM8Wt8S/9RBa5wTWY5tq+fU/C6gy5XvNkNia7S39dULW6kjJ5AlPeSQCcKKKYuHgS097o784STyR0jWbqq735WwumQRD2fevn1lgFeKBaQqnaZ2itA7E6sHCYQBpY8ObDClkt6J45QhBt5VtnpptVhOOeXwjtNv5MB2J1YTSQeTThU+5Fb/3dgaw21BZuLl/0lG8ZrbEKMezrhU4Yw0n9y1idaOn47sKm2XFr044WVi0OnpopZoiZ2pbVjGnDlgmYnelZq0tjdaM2uo+/cOndY3Od3ax6zHmYYAklp2BfR2I1pKNVHYESdGH4kCc5WCW5vpbC5Gxa0i8DOqyetMybJkQKnvtOG2lhVWXx2QRI1IWJZytmtaWro+hY6fyPb1xZFBlm5JXZ9+vA6swMgbHSd1rdDFZtFl8sV1AcZv+3xazmdAHEkBQBUZtzSDcXqzzX126UcBi2a4D6flZ/2gb8ulDo+X745BXZWBVafq2jWYVB/ezWW8phtah76ZJ4QdB44ZKlblaRpv3BzwuA02m+P3+pNFaZFr9/gMpvpUEvaFnM6lPba19J1UceHtRnRTZWpSYPu5dTtYdXNnQYgLNaVRu8OEKl3zyh/VXTWMVq6dsnRoV/anOtXKxyTe66SGUfefcd0yCZ1a9ah+XzVfSRd33+5WprrIq11W9SqpYpXXA3G6tmC09WJ0oVRx5b52SFrKoN29lQ1Xs+zTm0ahirbbU5l4tVtfvQgfbLDdZYhWtbuLU2KjY66KmjbazSzZgCIJV68fUlV3ph5QitTJ7rP/vyt1KhB+mihvxBDVb5hq2uaYrK7Hmr6erCWP2rHejzB6rIQ+/Ogf+yocZCQK1t/wS7Sqz2lbC8mpuFgY5DLW6sAptKs84/24s7WChoWzg7QOW9sQYMWmhj4aDrbteLUHGFX3S/rd3NxULCjAG9/HS19q7XgAyuoMB4o+LeCY03aisbPaLiO+Fh9HOvTE0dpbMGXG9mNAsRXfXP1FglnSe3N97b3VwsTLTE/dssFVSmzZm1rhALCxUdAO/Za6qc8ucps77+t20sXHTP2dB/VDF1xaL+40/PcbOQUfv+BnVUSr3uzDpzv19jcWN59Y/+E9VxSk3/k1efkcOCx7S+QIu6OPhun//BrdJYAOmasKOh+aohHug97WiCiwWR7vSb3SpUFTRvNuRE6W4WSZbX/fQC4pdqs6a+fd1yFk5Gd265J8JnnV+zZf1oFlK6i+cebFMkP/qub+qvtK+Qt7gyb8o/ygondwOkCSvrmceCS9uNAHLIREJvrscP+a/9bCzCLP/sD04Ip/L2H/zZ5SzMtPQ71ohE8m6uJ444Vj8LizWTWz1/zeGkrRwy6/mflMwCTkf6e39zAFFrdzsDvvlvpztY1BkYErwrep5V0ze1q4eFBLLQUyt/0uIuMaQMuGpt+5tSrrH40zGu+tTWRLw4Tf/WvWYcyMGiUEvbsaeKJV8TSymxu+va1sVi0egvP1GfUYQ7Wx4+qs/OvjyaRaSFE65FtBXhBT22NKGQK1FcriDWl/+UUX22tDBSY8Fp2tITffSPk+lQnf+Pf/SJJqSxGDVwW2PfuUoQec6X60FVmozdViCLVF0dZtRqWkqYRhHtpU1nz6jtYvGqo/uTnn1EQThNjsWNePYp3R0satXy4m726QMzSfHtX88c+Ok3C8nTWPDqKh7Z8lYFRDgGn1IwpOXIdBeLYbXkuGG9umD/X729dG1LhsUlayyUta2vb/CrHy0T6XaMrZlHe/XgvuuzsJA2ukOjZ++RgO3JNT0oodnXz+sQzULbtLZ1d9QsC8vDdXpmQrMd1W2bxkLctMHzbgeg18fu/3r7xCpX+vh5g73xO0H9/b+4738937tHINWjSH7Eu7/zF7cqjmYhry0s5HHrOlfriag0puac2Ppc67rQwjIbC321wtqtrvXBzzy+xI7At/yS2Gf+4GO1qp2msXlAd/KNum2o1/Tx8Yr9TcEZOn56rw1165fsZnODjuQb9aw6+2BV/sRfUQ/G6/5/UuVgg6r2vFGyg80XutOK37zF13/608aXKuBRu/zS8U97+69v8ebFaW42i2gpr3a1sZert72E7OGKVODNOjw7YXv1Ljf2atXKLWxuUbO88pznfvnglU0eM780SiGys0aVzh/TY2XBfzBzzitbNDbn6AictK2+hwseBKBpy3JL8k30X3w9vyR32bQrDXpYi77bmhTo6T/s5p3soss7dG7UdU2DvnlXNednx+SbxBcGa35M9qiau/roQWvq2qhzh5xoB5utdGQkf/+2ZnZs8Mn7a9JjezUb58YX5RvZGXV7flF8buOa2+vRZH+f3KDjzG19f3KGg81napbC8nHVRj/pjbtuaHmtJn1G9B66bJRfdmjMcP8Up1XXDfRdXrc6U/yHx4Rm+41aNrT3W/dZUGv5hrq+8ZTR1caVF1o0NvPpyCjMK2vYdsLMR73x49qv0O5itabeqc+5dtV7zKzXbx4bW9DGEwtiY5u//qwxvZ/5YH3uNLXWxdqt0P5xb/yomRPaNizLK1SLXwUY;aspect=fixed;" parent="1" vertex="1">
          <mxGeometry x="200" y="470" width="50" height="50" as="geometry" />
        </mxCell>
        <mxCell id="GTzW13PCpok3m3NTXm2x-9" value="Extract Text" style="edgeStyle=orthogonalEdgeStyle;rounded=0;orthogonalLoop=1;jettySize=auto;html=1;" parent="1" source="GTzW13PCpok3m3NTXm2x-3" target="GTzW13PCpok3m3NTXm2x-8" edge="1">
          <mxGeometry relative="1" as="geometry" />
        </mxCell>
        <mxCell id="GTzW13PCpok3m3NTXm2x-3" value="Resume PDF" style="shape=image;verticalLabelPosition=top;labelBackgroundColor=none;verticalAlign=bottom;aspect=fixed;imageAspect=0;image=data:image/png,iVBORw0KGgoAAAANSUhEUgAAAYcAAAHgCAYAAABO76GcAAAABGdBTUEAALGPC/xhBQAAACBjSFJNAAB6JgAAgIQAAPoAAACA6AAAdTAAAOpgAAA6mAAAF3CculE8AAAABmJLR0QA/wD/AP+gvaeTAABB7klEQVR42u3dd3gU1QIF8HNntoSEQAIkGwIhFSJFelME6SqooIgCKtYnigVFnwqIigVQRLEgIh0RkQcqioB0C4oUwUhVek9ooSRky8x9f8TnEzdAdnYn2d2c3/f5qdmdO7P3zs7ZO+VegSAmAQUpCTUAPROQmYC4DAKpgIgDZHkAUQDKA4gBEZWkPAAn//HPAQixExI7IbRt2HVshwB0VlVoEkEXBqnxl0OI9pB6e0C0AVCBzUQUkk4D8hdArAfEt4jUV4jNR8+yWhgOxQ+ENEc7SNkXQBcAVdgsRGHJBcgfIfANFPEfsSNnJ6uE4eAdCslVa0PofSH02wGRxKYgKlMkgB8g5FRY5X/E9mNnWCVlPBxkiqMlhD4EEF0RZKe1iKhU5AOYAl2MFnuzd7M6ylg4yOSEdlD0IQA6sNqJqAgeAJ9CV18Vew9vZXWEeTjIGo40KHgXQnZhdRNRMegAPoauPyP2HjvM6gizcJAZGXZ4Tj8DgWcBlGNVE5GPzkLKV1D56JtiPdysjjAIB5kWdxWkmAygJquYiPz0G3T0E3tzfmJVhGg4SEAgxfEYhBwFwMrqJaIAHl7ehRr9tNixw8nqCKFwkBkJcdD0jwBcw2olIpNkQWq3iT3Ht7EqQiAcZHKVxlCUrwAkskqJyGRnIHC32JXzGavCPIr/wZDQDoqygsFARCUkGhJzZJpjpARUVkcQ9hxkWnwPSHwMwM6qJKKSJ+cjX+klsrPzWBdBEg4yLe5eSPEhmNxEVLq+h03vyiE4giAcZIqjG4Scy2AgoiA5lK2DVtBZ7Dt1knVRSuEgUxLaQugLAUSU6JaqKmS1JOjJqZCpadATqgLlIiGjo4FykYCdZ7aITOdyAufOQeTmQpw4XvhPzhGIXTuh7NsLaJ7SPJyth9vaWRw4cIINVcLhIFPj6wP4FiU0uY5e6zJoV1wFvfkV0Js2h4wqzxYjCtrgcEHZ+QeUXTsgtmyCunY1lG1bAL1E5/vZAJe1kzh48DgbpITCQaY74qHLDTD5riQZ74CnazdoN94MvWYmW4golA8wuSehLl8Cy5efQVm/BpCyJFa7EVZLJ/H7oWNsAZPD4c8Z2hbAxAfcZEoa3Pf1g+f6mwArH64mCruDzb49sE6bCMsXcwCn2Q85y63QZQcO3Gd2OKQ6BgPyVVOaMC4e7oHPwtO1G6AobBGicD/oHDsK67i3YZnzqdnXKLbDo7cX+48dYq2bEA4yNa41IJYDsAR0zaoFnj53wv3wE5Dlo9kSRGWMsnsnbMOGQFn3MwMi1MJBZmTYoZ3+FUBAT/5LR1U4Xx8DvUlztgBRWSYlLHNmwfrGcIi8s2atZQ900Z6zzPkY3hd9VT89KNDBoLVuh4K5XzMYiAgQAp6evVEw7xtozVqYtZYUKHKFrOFIY4UHoOcgM+LToWETAvg8g6f7LXANGwGoFtY8Ef3jl6MG6/j3YP3gHbNuf90HFe3FjpydrGx/wiHVMR+QXQO1IveDj8L9yEDWOBFdlLpkIeyDBgIFBSaULvdDoIPYdfQP1rSBcJDpjvbQ5bKABcNDj8H98BOsbSIqFmXdz4jofx+Qb8p4etlQlQ5ix5HNrOmLtEHR3Ts5JFAr8PTszWAgIp/oTVugYNxkyMgoM4p3QNOXyzTH5axpH3oOMsXRAkKuDkThWuu2cL43EVA5Ph8RGfj1+sta2B+8B8KcHsRRAB3F7pws1nRxeg4CQwNRsHQkwDXiTQYDERnvQTRuBueUmZAVK5pRfBwgVsq0hGas6UuEg6yRUAeQXfwuVVXhfG0MZEwsa5iI/AuIuvXhHD8dsoIZASFjIfVFMr1KE9b0xXoOFtkXAZhX2tO7L/SmLVi7RBSYgKhXH87JM836wVkJurJMpjhasqb/768gKBxcL24PIJL8yuHKVVAwfxlkdAXWLhEF9tfs9q2w338HxElTpmzIg1SuF3uOrGRN/73nkBrfwd9gAAD3k4MYDERkTg8iszacUz6BrFzFjOKjIPT5Mt3RnjV9/mmlO/0tTCYlw9P1RtYqEZkXEBm14Jz2KWS8w5yA0OWXMjmhHcMBf55SAq7zu9dw/0McGoOIzA+IlDQUTJ4J6ahqTkAo+tcyNb4Tew7JcQ0A+NVPk1Xi4LnhJu61RFQiZEoaCqbMhKxqyuSU5QB8JVMdZfZUSGE4KMLvc2yert0Am417LBGVXEDUSEHBtNmQSclmFG8H5H9kSnz3shsOEH6fX9NuvJl7KhGVfEAkVivsQdRIMaN4GwRmy7T4MneAUwqvN8jW/hSip9eEnlmbeykRlU5AJCQWBkRyqhnFWyExS6bG9SxbPYdkRzIAv+491Vu14d5JRKUbEI6qKJg+G3p6TXMCAuITmRp/Z1mpTwVC93umN60ZHywkoiAIiMpV4JzyCfSamWYUrwKYIlPi7iob4QDFv1pUFOhNOG4VEQVJQFSqDOfkmdBrXWZOQAgxRabFP1QGwkH6FQ4ysZpJA2IRERk8LsVWgnPqLOj16ptRvIDEWJka90h4h4NAhj8F6OZcACIi8i8gKlSEc8JH0Os3NCcgIN6RqXEPh3HPQfg1zKFMTedeSETBGRDRFeD8cDr0ho3NCoh3ZYrj8TANBxntV+U7ErgHElHwBkT5aDjHT4PeqKk5ASHkWzLVMSTc6k0B4F84mDPHKxFR4AIiqjwKxk+D1vwKs9bwikyJf57h8HdRDAciCgGRkXCOnQStZStzyhcYJtMcI8MpHPw6usuIctzpiCg0lCsH53sToV3Z2pzypXxGpsa9HC7hoPhXgsIdjohCR0REYQ+iXUeTViCek6nxo8IhHIiIyharFc4334fWobNZa3hKpsS/Kf82FTPDgYgoVAJi9HvQOl5rUgcCTyAtflyoBgTDgYjKLkthQHiu725O+RL9kBo/XobgsZbhQERlm6rC9eob8Jg3J82/kBr3YagFBMOBiEhV4Xr5dXi632LSCsR9SImfIdvCwnAgIgrFgOhl0pQNAr2xNy5kAoLhQET01wFcwDVkGDx9zJqyQdyGvY6ZsgmsDAciolALiEEvwHPHPSatQPbEibjPZEaGneFARBRqAfHMUHj63mvWCq6H58xnMiUlguFARBRqAfH0ULj7mTSnj5BdIPI/D9aAYDgQEV2E+9En4X7oMbOKvxYif56sXj3oBqljOBARXSogHn4C7ieeMav4zrC6Fsm6ceUZDkREoRYQ9z0I98BnzSq+DfLFQplZJTpYPi/DgYiouAFxbz+4nxpsVvFXwaUslBmVKjAciIhCLSDu/hdcQ18GhCnj6bWCZl0uq1evxHAgIgoxntvugGvoKyYFhGwCm2uJrFatMsOBiCjUAuLWPnC9MNycCc8kGsPmXiprJVZhOBARhVpA3NILrmEjzJoRsyE8nm9lSlwCw4GIKNQC4qZb4Rz5FqCaMJ6eRB0IZYVMqpLIcCAiCjFalxvNCwjIy2BRlsvqlasxHIiIQi0grrseztfHABZTBlzNhFVdITMqVWc4EBGFWkBc0xXOtz8AbDYziq8JzfK9THakMhyIiEItIK5uXxgQdlNG5E6BIlfKjPh0hgMRUagFROt2cL493qyAqAFNrpDpcRkMByKiUAuIq66G890JQIQZI3KLJOjie1kjoQ7DgYgo1ALiytYo+GAqEBllRvEJUPXlMt1Rj+FARBRi9KYtUPDBFEhzAsIBXS6TaY7LGQ5ERKEWEI2bwTl+KmSUKVM2xEPiW5lWpSnDgYgo1AKiUVM4p8yErFjRhNJlLKS6WKYlNGM4EBGFWkDUuRzOCTMgY2JMCgh9sUxxtGA4EBGFXEDUg3Pix5AxsWYUHwMhv5HJ8VcwHIiIQi0gLqsD57TZkFXizCi+IhQskckJ7RgOREShFhDpGXBO+QQy3mFG8VFQ9Pky3dGe4UBEFGoBkZoO5+SZkA5TpmyIhC6/kmmODgwHIqJQC4iUNBRMngnpqGpOQEj5pUxJaMtwICIKMTI5FQXTZ0NWTzInIIQ+z9cH5RgORETBEBDVqqNgyizIpGQziq8AyIW+zAfBcCAiCpaAqJqIgikzIWukmFA4qkG3zJMOR7HG8WA4EBEFU0AkJKJg+mzo6SaMyC3RGJH6JIYDEVEoBkSVODgnfwI9o5YJpYvbZKrjAYYDEVEoBkTlKnBOngm9ZqYZpY+RKZUvu9g7LGwCCjciNxfK5iyIfXsg8vMLvwqxlaDXSIZe53IgMpKVRKEREJUqwzl5Juz33wFl+9ZAFl0OwjJDNsEVYj3cDAcKX5oG9ZuvYf30Yygb1wOaVvT7bDZoTZpD634LPJ27AFYr646COyBiK8E55RPYH+gLZVNWIEtuguPxTwA5rxf5I0umxkt/ine+8yG09p3YglRqlE1ZsA15EsrOHb59NeIdcD86EJ7uPQEhWJEU3D3iM6dh73cXlKyNgSw2H8JSW+w6tM/re8Uqp1BmmfURIu64xedgAACRkw3b0GcQcWdPiEMHWZkU3D2I6ApwfjgdesPGgSw2ErpnRJE/uljlFLLBMGMKbK++AHjc/vU8Nq5HxK03QF3zEyuVgjsgykfDOX4a9PoNA9glQW+ZmtCc4UBhQVm7GrZRrwJSBub7kXsS9n53Qf1uOSuXgjsgosrD+f5kyKQagYsHyOe9/shrDhRqRN5ZRNzYCSL7yAXfo9e5HFqr1kD5aCD3JNSff4SyZdOlC4+IQMGEj6A3asqKpuD+gbRzB+y33wxx9kygSmwhdh9Z81fPnFVMocYyY+oFg0FWrAjXy6O8frC4AahrVsP68nNQdu+8cOEFBbA/9SgK5nwNGVuJlU1BS0/PgGvEm7A/9kCAetD6vwH0/CsqWMUUUvLzYZk+sehgiImBc8bcC/ZkteYtUTD7K2jXdL14zyT7CGxD/s26pqCntesIT687A1XcjTIjIY7hQCFJ/XY5xKlTRRzRBVyjx0JPTb94AeXKwfn629Cuvf7i6/luOdQVS1nhFPRcTw0O1FPUNnjk7QwHCkmWZd8U+XfP9d2htbiymAmjwvX0c4DdfvFvyqhX/b4Tish0djtcw0cDagCuEgh5F8OBQpKyYV2RB3v3IwN9KkfGO+C5RO9B7NsDdfFCVjoFPb12XXh6B+T0UsP/zfnAcKCQIbIPF3khWmvdFrJadZ/L09q0u+R7rDOmsOIpJLj7D4AsH+1/QR61I8OBQqvXsHtX0fty1+7Gfm21aHXpdWZthNi7m5VPQU9WqAjPnfcE4IuGaxgOFFo9hz1FhIOqQr+ytbEvU0wMZKXKl3yfZdHXrHwKCZ6efQBV9TNlREuGA4VWOBzxPqWkZ9aGrFjR+PcgJe2S71F/+JaVT6HRe4h3QG/czN9ikmWNirEMBwqdcDhxzDscatX278tU6dIPuim//QqRn8cGoJCgNWvp91cNSrkGDAcKnXA4eaKIcLjMv3CILkavw+MO8Dj6RObRGzQKwJdN1mQ4UOhwubwP7omJ/pV5iWcd/uo9FGdcJqJgCIdinCotRinJDAcKHW7vB9JklTg/y3QV74dUYKdoJDKNrJoIlCvnb9ehBsOBQobQde8vgr+D47mKGQ5HDrEBKDQoCvTqfg/nXYHhQKGjqKEsinla6IIHfXfxhsdQcnJY/xQ6vYdi3KJ9CZEMBwodbo/33yxWP8ssZs8h5wjrn0JHxRg/0wVRDAcKoZ9DepFdaL8U87QSzp2DOH2KbUCh8VWpUMG/AgR7DhRKykUWedD26ztQxO2xF+49ZLMNKDTCwe8xlqSb4UChs8NHRnkfsM/l+xcOR324luBnEBGVGCH8LcDFcKDQEV3e+2/+zJ8rJcTx48V/v+ZhG1CZ+S3GcKDQ7jmcOGG4PHHyhG+T+RRxKy1RuGI4UOiEQ5R3z8Gfu4jEsaO+vV9jOBDDgSj4FHGRzZ+LxD5dbwAAXWMbEMOBKOh6DjExRYSD8YfTxM4dvi2gMRyI4UAUfOHgqFpEOBg/raT8sd239UdEsBGI4UAUdOGQUEQ4HDY+5pGyw7dwQIWKbARiOBAFXThU9R6eWzmwz9jpHl2HsvMP39bPcCCGA1EQhkNMrPdAe263od6DOLgfyPftAToZXYGNQAwHoqAjBGR8gvdOvG+P7zv+7z6eUrJaAzBGPhHDgcgUeoJ3OIi9u33f8bdv8a3XwFNKxHAgCl4yKTkwPQcfp/2UFRkOxHAgCt6eQ0amd89h9y7fd/ytm30Lh8TqrHxiOBAFbc8ho6bfB3px/BhEtm/PR0j/p10kYjgQmddzqFX0wd6HcZKUzVm+h1L1JFY+MRyIgrbnEO8o8vy/L70HZfMmn9erV+NpJWI4EAV3QBRx3UHZVvy7j5StvoeDrMaeAzEciIJaUaeWfOo5ZG30PRx4WokYDkRBHg516hkOB7F/n8/zOMjoCnzOgRgOREEfDo2aFnHQ3wuRffiSy6q//uJ7ryGzNiudGA5EQR8OqWmQsZW8D/xrVl96h9/oezjol9VhpRPDgSjoCQG9YWPvnXn1qkvv8AZ6DnrmZaxzYjgQhUTvoYhTS+rqHy++UH6e7wPuAdB5WokYDkShQWvUxLtDkX0YYs+Fh9JQ168FNI9vK1It0NNrscKJ4UAUEj2HuvW953YAoK767sI7+88/+r6e1LQi10PEcCAKRjYbtKYtvMNh2eILdwKMhEPtuqxrYjgQhRKtfSfvAFi/FuLUKa+/i9xcKNu3MhyIGA4U9uHQtgMgxD/+6IG6cqn3jr76B0DXfQ+Hxs1Y0cRwIAol0lEVem3vp6XV5d6nltRvl/u+gshI6JfxTiViOBCFXu+hqFNLq74D8vP/9vNfv+iF6guWXb8RYLGykonhQBRy4dCuo/cfCwqg/vj9/3fyrI0QJ477XLbeuCkrmBgORKFIz6xd5LzSfz+1pH6/wljZvN5ADAei0OXpeqN3OKxYCnjchf+9cpnvhaoWaPUbsnKJ4UAUqrSu3bz+Js6cLrytNScbyu/bfO811K4DREaxconhQBSq9NT0Iud4UJctLuw1SOl7mTylRAwHojDoPXQp4tTSsm9g6JQSAK3llaxUYjgQhTrPdTcAyvm7s8g+AvWHlb4XplqgN2nOSiWGA1Gok44EaE2LOKAbeSr68vqQUeVZqcRwIAoHWpdugSmnBU8pETEcKHzCofN1gM3mdzl6i1asTGI4sAooXMgKFaG1butfIXY7n28gYjhQuPFcd4N/vY9GTYGICFYkMRxYBRROtHadIMtHG15e5y2sRAwHCkN2O7QOnY2HC683EDEcKDzJxGrGlisfDb0OZ34jYjhQGCaDhGX+PEOL6s1aAKqFdUjEcKBwo65bA7F/r6Fl+XwDEcOBwjUcPp9teFm9Ja83EDEcKPzk58Gy9BtDi8pKlaGn12QdEjEcKNxYFn0N5OcZ7zUIwUokYjhQ2IXD5/8xvCyvNxAxHCgMib27oWxcz3AgYjgQ/b3XMMfQjG8AIKsmQlZPYiUSMRworOg6LPM/N97ryMmGsm0L65GI4UDhRF31HcSRw8YL0DTYXn3BcM+DiOFAFIQsX8zx/4uwYR0sC79iZRIxHCgciFOnoK5YEpCyrK+/ApF3lpVKxHCgUKd+/QXgcgUmaI4dheXDsaxUIoYDhTrLF3MNLSdjKwFWq3fvYfokiD27WLHEcGAVUMjuvL9vg7LlN0PLajd0h7vvfd4vuN2wvfYyK5f4/WIVUOj2Gow/Ee3p3AXuBx8rcu4H9fuVUBfNZwUTw4Eo5LjdUL/6wtCiMt4BvX4joFw5uJ4aXOR7bCOGQZw6xXomhgNRKFFXLIE4ecLQslrHawGlcNfXOncp/P9/EMePwfo6Ty8Rw4EopFjmfmp42X+GgWvIMMiKFb3XMW8u1B++ZWUTw4EoFIgjh6CuXmVoWRkTC61J0/P/FhcP97MvFPl+2wvPQuTmstKJ4UAUEr0GTTPWa+h0bZHzRHtuuAla+07eQZR9BLaXhrDSieFAFNR03a/hMrQu3S74muuVUZBVE73+ri5eEJAhOogYDkQmUX9YCXH4kKFlZbwDWuOmF369QkU4h48GVNXrNdvwFyH27mYDEMOBKBhZ5swyvKznuhuKPPCf1zFp1hLue/t5v5CfB/szjwMeNxuBGA5EwUQczYH67QrDy2tdbijW+9yPPAG9YWPvL8umLFjHvcOGIIYDUVD1Gj6bDWgeQ8vK5FTodesX782qBc6RYyCjynu9ZJ3wvuE7pYgYDkSBpmmwzPXjlFLXG30Lk+pJcA8q4vZWXYft6QEQR3PYJsRwICpt6ncrIA4dNLawEPBc3933QOl+C7SO13gXd+I4bIMGArrOhiGGA1Fpssz6yHino2lzyBophpZ1vTgCMi7eO6xWr4J14jg2DDEciEqL2L8P6k8/GA+HHr0MLytjYuF6aSQghNdr1rFjoKxfwwYihgNRqfQa/jPT8CkcGV0BniIG1vMpXFq3g6fPXUW84IH9349BHDvKRiKGA1GJcrn8eyK6azcgIsL/zfj3YOgNGnn3anKyYX/8IT7/QAwHohLtNSxeAHHiuOHlPTffGqANscI58i3I8tHeX6KN62EdM4qNRQwHohILh08/NrysXrsu9Dr1ArYtMim58PpDEazTJkJdspANRgwHItN3zu1boWxYZ7zXcOvtAd8mrXOXoq8/SAnbc09D2bOLDUcMByJTew0zpxn/lR8ZBc3HB9+Ky/XUBa4/5J2FbcCDQH4eG48YDkRmEKdPwbLgS+O/8G+4CTIyypyNs9ngfHs8pCPB+wu18w/YBz8JSMlGJIYDUcB7DXNmAefOGV7ec0svU7dPVomDc/RYwGbzek1d+g0fkCOGA1HAaRoss/24EN2gEfTadU3fTL1hY7heGF7ka9Z3R0P9djnbkhgORIGirlwGcWC/8V5Dzz4ltq2ebj3gua2IC9+6DtuzT0DwAjUxHIgCw/LxFMPLyugK8FzTtUS31zXoBWhXXe31d3HmNOyP/Avi7Bk2KjEciPzaIXfugLr2Z8PLa917AOXKlXCaWeF6c2yRz1Qoe3ZxBFdiOBAFpNfgx50+nlt6l8p2y8goOMdPK3L0V3XFUlg/4AxyxHAgMkScOQ3L/HmGl9ebtoCeXrPUtl/GVoLzvYmQ0RW8XrN+8C7U5UvYyMRwIPK51zBnll8PkHlu7VPqn0FPS4dr9HuAqv7jBR32Z5+AsvMPNjQxHIiKTfP490R0TCw8Ha4Jjo9yZWu4H3/a+4X8PNgf6wdx5jTbm4L/xxqrgIKBungRxOFDxnsNN/UE7Pag+Tzuex6A2L4VlvlfnPd3sXc3bM88Aed7EwDFhN9mTidE9mGIY0chcnMhTp2EyM0FThz/6/9x9izE2bOArkHknQU0DTj757//2eOJjgYUBdIeAcTEQlasCFkhBrJiRSAuHnq16pA1UqBXrwFERnJHZjgQBZb1o0nGFxYCnp69g+4zuV4cAWXPLiibss4Pwu+Ww/ruaLgH/Nv3j3r8GMSB/RCHDkLJPgxx5DDE4YMQhw8XhsLxY4H9EKdPFa63OL23uHjo6TWh128IvUFj6PUbQsZW4s7NcCAyRtmwDkrWRsPLay2uNDxHtKkiIuB8ezwienWDOJpzfhhOHAe9dl1onbucv0x+PpRDByD274M4sB/Kof1/++8DQH5+0LajOJoD9WgO1NWr/vqbnpIGrV1HaB2ugV6/oTm9JWI4UJj2GqZP9mv5YLgQfcFf044EOMd8gIh7egEu199ekLA/9zTcm7KgHDkMcaAwAPyZ2Cgog3/PLihTPoR1yoeQcfHwdLkRnj53QVarzh0/2NuOVUCl+mvzwH6oyxcbP/jGxUNr3ymoP6PeoBHc9z/k/UJ+HqyTx0Nd8CWUrI1hFwxF9Sys0yaiXJe2sD/R36/eIrHnQOHea5g5tfBCqNFew009AYs1uA6Chw5C2ZwFZdNvULb8BmXzbxB/nrs3vadSqTJkvAMyzgEZG1t4zj8uHjK2EmSlSoWvV4i59Gc4cwooKIBwOoGTJyFOHIM4dgzi0AEou3dC2bUDcDqNbaSmQV2yEOrSRfDceDPcA5+FrFyFXwaGA9H/DkCnoc751HgBqlpqT0T/9RmOHYWStbEwDDb/GQQnT5hz4I+MgqyeBFmtOmS1pMIQcCRAT6gKGZ9QOL9EEUOIG1rXJQ/wHii/ZUFd8xPUxQugbNtiYCUSlnlzoS5bDPdzL8FzfXd+KRgORIBl9kwIPx56065sA5lYreQ2uKAAytZNULI2Qv3tVyhZGyAOHQxsAESVh0xLh55eEzI1HXpSjT/DoAZkTEzwNJ5qgd6wMfSGjeF+4GEoO36HZeY0WObN9blHIc6eKRzBdutmuAc+6307LTEcqAxxuWD5eKpfRRQ5VHYgewXZh6GsXwt1w3oov26A8vs2wOM2dZ1667ZwPfcSZExsSDWnnlELrudfhfvhJ2B9f0zh0+4+ni60TpsI5dBBON94lwHBcKAyu+MtmAeRk238F3ZCVWit2wZ0m5TdO6H8sg7K+jVQf1nr15wSRYqMgl6nHrR69YGKMbCOHeMVNuqi+YhYuxquF0dAa9cx5NpVVq4C19BX4Ln2etj//RjEsaO+dUiWLIRtxDC4nnuJXxKGA5U5UsIy5UP/eg09evn961IcPwZ11XdQf/gWyupVgb1byGKFXrMW9MsbFP5TrwH0tIzztlnPvAz2gQ8DBQVe22V/9F/wdOsB97PPFzmQX9D3JJq1RMHUWYi4t4/PPwIssz6Cflkd06d6JYYDBRn1uxVQdu4wXoDVCs/Nt/q+nOaB8usGqD98C/WH76Bs3eTX8ODn5V3VROiNmkC7vBH0y+tDv6wuEBFx8c1p0x4FH0yF/eH7C4ex+OeXc95cqD/9ANfgYdA6XhNy7SxT0uB8axwi7rrN59Nx1tEjoLXtAFkljl8YhgOVFdapE/zrNdx8W+GdOcXpHZw9A+X7b2FZsQTK9ysDM+id3Q69dj1oDRoVXpRt0Bgy3mHsF3bTFnBO+7QwILIPe29/Tjbsjz8IreM1cA0eZng9pdaDaNAI7jvu9rnNxZnTsL7zBlwvvcYvDMOBygLlt1+hrF1tvICICLgfePjiB5Yjh6CuWAp1+RKo634G3P5dRJYxMdCbNIfWpAX0Bo0KZ3yzBu7ZCv2yOiiY9QXsjz0A5bdfi+5tLf0GEat/hHvgs4XjSAkRMm3uue9BWGd95HX67JIHpwVfwj1wUHDdpcVwIDKp1+DvtYbb7iiy16D8sR3q0m+grlgCZcsm/8KgUmXoTVtAa9IMevMroGfUMv1gLOPiUTBlFuzP/RvqovkX7AXZXhoCy9fz4Bo2AnpKWki0uYytBO3K1r5PdlRQAPXLz+Dpey+/OAwHCmdi/16oy74xXkBk1P+HoZASyqYsqEsXwbL0G4i9u40fvKLKQ7+iFbQrroLetCX09IzSqaCICDhHvQNrnXqwvv0GoHmK7n2tX4OIHl3gvv1ueO7tFxK3vWpNmhuaCU/96XuGA8OBwr7XMG2SX0NluHv3hbLjD6hLF0Fd9g3EkcPGClKUwmsGrVpDa9UGesPGgBokXwUh4L63H7RGTWB/6rEir0MAAJxOWCePh2XWDHjuvAeeu+6HrFAxeHsPBgfaU37dUHjTQAidRmM4EPlyzMs9Ccu8Of6Fy8ypwKRxhnsdWqs2hcNHt24b9PMM6I2aomDu17ANGgj1+5UXrtf8PFjHvwfLzOnw3HkvPH36BmdPQjF227E4fQoi5wikoyq/RAwHCssdbeZ04Nw5/wrxcXnpSIDWtgO0dp2gNb8iYOMOldiv7ZhYON+fDOvUCbC+9+ZFh6UQZ07D+v4YWCd/AM+NN8PT976guibxz/ksfPthkctwYDhQWCoogOWT6SVzQK2aCK1zF3g6dymcXCbUT0cIAfc9D0Br1xG2FwZBWb/m0nU9eyYsc2ZBa90Wnrv+Ba15y9LvOGRtMF4FpznnNsOBwnMnmzfHtJFKAUAmVoOn03XQwiUQiqCnpKFgyiewzP4Y1jdfu/SAhboO9dvlUL9dXvi08a23Q7u+G2RkVMlvvNMJdcVS4+1rtfJLxHCgsKNphReizQiEzl0KA+HyBmXjgqWiwNPrTmhtO8A27Dmo368o3mLbtsD20hDgjeHwXHc9PD37QK9Xv+QOMrM+8ms+C871wHCgMKQuXwyxb09gAqFa9cIewjVdCw9uZfQOFpmQCOe4yVCXLYb1rdeg7NlVvAXz82CZ+ykscz+FXrsuPLf0htb1Rsjy0aZtq9i7u3CAQaOftXw0ZPUkfpEYDhROxPFjsH441r8DYfWk8wOB/t8p69AZWtv2sMyZBevYMT4NHKhs3Qzby88Br79ceG3i2uuhXd0BKFcucO1/NAcRD9/v15wdeuureRsrw4HCJhSOHS28B/8/M/26Q8lzxz1wPfs8K/SiXTMLPLfdAe2Gm2CZ9AGs0yf5VudOZ+GT5Uu/ASIjobXtCM91N0Br1cavu7uULb/B/vhDfk+G5LnpVrYxw4FCPhSO5sA6ZTwss2f6PI6O1y/GlDS4Hn+alVrcHlZkFNyPPglPrzthmTEFlk8/hjh7xrdC8vOhLvgS6oIvIctHQ7/iKmhXtoZ2xVXFPrUjDh+CdeoEWGbNuOAT3sXeBxo3g3ZlazYuw4FCNhRysgt7CnM+8TsUCn8Nq3ANH33JIa+piJCIi4f7iWfgeeBhWObMgmX65As/ZX2xNj17BuqShVCXLCwst3KVwnkp0msVzmPtcAA2OyAlxInjEHt3Q1n3M9T1a/16Cv4vkZFwvTSSDcpwoJAMhewj/w8FH+cNvhj3Pf0Kb0kl4yERVR7uu+6Hu89dsCz4EpaPp/o1IKE4fgzqymVQVy4zf+NVC5yvvxMyAwsyHIj+d6A4cgjWSeNhmTsLcLkCWraeXhPu/gNYyYFitcLTrQc83XpA+X0bLF/8B+pXX5j63Im/PQbn6+9Aa9uBbcdwoJAJhcOHYJ04DpbPZwc8FAp/MaqFk7uE2DAXoUKvdRlcTw8FBj4L9buVhUHx4/eBORUYiO2rczlcI9+CnpbOxmI4UEiEwqGDsE58H5bP/+P3xDkX47n9LugNGrHCTf/WW6G17wStfSfg3DmoP/8I9bvlUL9bYXykWz/IqolwP/gYPN1v8XtecGI4UEmEwsEDsE4YC8u8uaaGAgDIpBpwPfIkK72klStXODjhn6dxlO1boa5eBeXXDVCyNpgXFn+Okuu5pgu0TtcGz5DpxHCgi4TCgf1/hsJnl54YPjIS7l53Qv11w6UHhbvgCgVcLwwHIiNZ+aVMz6wNPbP2/5smJ7twatdNv0LZvw/iwJ//5Ob6Fv6OqtDTMyAzakG7ohW05lcCdjsrnOFAIREK+/fB+uFYWL76vHihcOvt8NzbD8rGX2CdPN7wej3de0Jr2YoNEIRkvKPwSewOnc/fV86eKXzA7fQpiIICIO9s4ZPQHg2Iiioc4C8yCrJChcJbX00cooMYDmRWKBw5BOvUibDM/vjSF5rLlYOnRy+473sQMi4eIj8PtldfMH7wiYuH+9+D2QihFhrloyFrXcaKYDhQWIbCieOwTJsI64wpl35OwWaDp1sPuPs/DhkX/9efrWNGGXrI6n9cQ14K6uktiRgOVKZCwTpxXGFP4VK3MUZEwHNrH7jvfRCyStx5LylZG2GZ9ZHh7dA6d4HW8Ro2CBHDgUrVuXOwTp8E66QPgEuNlBkRAU/P3oWh8Leewl88btheHATourHTEhUqwjX4RbYJEcOBSo2UUBcvgO3NkRAHD1z8vVYrPN1vgfvBxyAdCRd+24fvQ/l9m+FNcj/9nFdPhIgYDlRC1DWrYX3j1UuPq1PMUAAA5fdtsE4wPk+D1rwlPN16sHGIGA5U0sSRQ7C9/irUxQsukR4WeLr3gLv/AEhH1WIc2T2wDX3G+ENx5crBNew1TuBCxHCgEuVxw/LJDFjfHX3JGbi0lq3gfmYo9JqZxS7eOvlDKJuzDG+e69EnIZNqsJ2IGA5UUtQ1q2F9dSiUnTsuHgrNr4D7iWegX97Ap/KVnTtgHfe24e3T69WH5/a72VBEDAcqCSLvLKxvDIdlzixAygsfnDNqwf3QY9Cu6WqoR2J77injo7Ha7XC9MooDqxExHKhEegurvoPthWcvOkCarJEC16NPQru2q+Fz/dZ3RkP57VfD2+l6chD0jFpsMCKGA5neW3j9FVg+m33h3oLdDvd9D8F9/0N+zZGgrlkN69QJhpfXWrWBp3dfNhoRw4HMpGzOgv2pxyD2773wAbl5S7iHvgI91b+JU8SZ07ANedK/h91eGsm7k4gYDmQaKWGZMRW2N0dc8FZSWSUO7oHPwnPjzQFZpe2lIRCHDxle3vX8K8W7RZaIGA5k4Bd87knYBj0J9fsVRb9BVeHp3RfuRwdCRpUPzM4xeybUhfMNL+/p1gPatdez8YgYDmQGZecfsD98H8SB/UW+rte6DK5XRkGvUy9w69yyCbbXXjLeyamRAjfHTiIK3eMOqyC4qau+g/32HkUHgxDw3HEPCmbNC2gwiDOnYX/y4UsP430hdjucb7wbsB4MEbHnQH9vnI+mwPbGq4Cmef8yT6wG5/DR0Ju2COxKpYRtyFMQ+/cZLsI16MWAhhURMRzoT9ZJH8D61mtFvqa1uBKuUe9AVqoc+PVOnQB1+RLDy2tdboTnll5sQCKGAwX6l7v1zZGwTvnQ+zVVhfuRgYXPLZhwa6i69mdY337D8PJ6ek04XxzBNiRiOFCg2V57GZYZU7wzIzIKrlHvQLu6vSnrFQcPwPbEQ4DH4GirkVFwvTUOiIxkIxIxHCiQrJPHFx0MVRPhHDsJulkTuufnw/7ovyByTxpMFgHnsJHQ09LZiEQMBwok9ZuvYR3zuncwpKShYNIM8x4kkxL255/xb1a3fo9Au47PMxAxHCiglC2bYB/sPUSFnl4TzkkfmzqdpvWDd6EuMv6gm9bxGrj7P85GJGI4UECdOwfbs497PVMgk5LhnDwTsnIV8xp/wZewvj/G8PJ6Zm04h78JKHxchijsfrSyCkqXbfQIKLt2nh8MMbEoGDfZ1GBQ1q6G7bl/X3T+h4uRMbFwjvmAF6CJGA4U8MrfnAXLpzPO/6OqwvnW+5Apaeatd+cfsD/Wz/jEPTYbnO9N4HSfRAwHMoP1ndFev9zd/R6B3qylaesUOdmwP3QPxJnTxgpQVThHvAm9YRM2IBHDgQJe8b+shbrqu/P+pqelw93vEfOCITcX9n53QRw6aLAAAdfQV4xNM0pEDAe6NMu8uV5/cz85GFDNuUdAnD0D+wN9ofyx3XAZ7see4tAYRAwHMo3m8Rq/SCanQmvTzpz1nTsH+8P3Q9nym+EiPL37wv2v/mw7IoYDmVbpmzdBnDxx/sH3+u7mTKV57hzs/e+Bsn6N8WC48Wa4ODcDEcOBzCUOeA+HrddvGPj1nD6FiH53QV37s/Fg6HIjXC+/xjmgiRgOZHqlH/a+ICyrVgtsMGQfgb3vrVB+WWs8GHr2hmvkW6ZdByGi4MVvfSmQVpv3H43eWlpU+OzcAXv/eyAOHjAeDLffDdezz7PHQMSeA5WYIp58Vn7bGJi0/2IOInp38ysY3Hf/C65BLzAYiBgOVJL09JreB/V5c70G3vOFOHUKtsFPFg6JkZ9vrBDVAtegF+B+ajAbiYjhQCUeDpfVgayedH5DbN0My8xpvhemeWD5ZDoiuraF5cvPDG+TLB8N5/uT4Ln9bjYQETEcSouny41ef7ONHgF1xdJiJowOddF8RNzcBbZXX4DIzTUeDEnJcM78HFqrNmwYImI4lGo43NsPslLl8//odsM+sD+sk8cDmqfI5cSpU7DMnomI7p1hf+pRKDv/8Gs7tI7XoOCTLziLGxGdh3crlRJZPhrux5+G7flnvALC+uZIWGZ/DE/HayGTUwG7HWLvbiibf4P684+A2+3/+itUhHvwi4UP3xERMRyCqPdw861QNq6H5bPZ3j2EA/thnTrBlPVqrdvC9eIISEcCG4GIGA7ByPX8KxAH9kNd85Pp69IbNob70SehtbiSFU9EF8VrDqUez1Y435sIrV1H80KhzuVwvj8JBTPmMhiIiD2HkBEZCec7H8Iycxqs74yGyDvrd5GyfDS0LjfA072nKeM2ERHDgUqCEPDcfje0rt1hmTkVlrmzIbIP+xYIjgRozVpCb90Wng7XABERrFciYjiEAxkTA3f/x+F+8DEoWzdBXfszxB/bIbKPQJzLB1wuiHPnIKvEQa+aCOmoCpmcDK1Jc8gaKaxAImI4hDVFgV63PvS69VkXRFTyhyBWARERMRyIiIjhQEREDAciImI4EBERw4GIiBgORETEcCAiIoYDERExHIiIiOFAREQMByIiYjgQERHDgYiIGA5ERMRwICIiYjgQERHDgYiIGA5ERMRwICIihgMRETEciIiI4UBERAwHIiJiOBAREcOBiIgYDkRExHAgIiKGAxERMRyIiIjhQERExHAgIiKGAxERMRyIiIjhQEREDAciImI4EBERw4GIiBgORETEcCAiIoYDERExHIiIiOFAREQMByIiYjgQERHDgYiI6E8WVkF4OX36NA4dOhSQslRVRWRkJADAZrMhKirqr/8vDfv27UN+fr5fZURGRsJutyMyMhJRUVFQlOD/fRSIz2229PR0WK1WfgEZDhSsfvrpJzz//POmlW+32xETE4PKlSsjMTERycnJSE5ORmZmJlJSUkz9bMOHD8eGDRsCWub/Qs/hcCAxMRFJSUnIzMxEZmYmqlevHhRtOmrUKKxZsyao97t58+YhISGBX0CGA5VVTqcT2dnZyM7OxpYtW857rXLlymjSpAnatm2Lq6++GhZL8O9eLpcLLpcLJ0+exLZt2857LS4uDk2aNEGbNm3QqlUrREREcAcghgORr44fP47Fixdj8eLFqFy5Mrp3746+ffuG7EH16NGjWLRoERYtWoRy5cqhQ4cOuPXWW5GZmcnGprDHC9JkWlBMmjQJffr0wbp160L+85w7dw7z589H3759MWDAAGzfvp2NTAwHIqMOHjyIRx55BNOnTw+bz7R69WrcfffdGDlyJPLy8tjIxHAgMkJKibFjx2LcuHFh85l0Xcfnn3+OXr164ddff2UjE8OByKipU6di6tSpYfWZcnJy0L9/f8yZM4cNTAwHIqPGjx8fFtcg/s7j8WDUqFEYP348G5gYDkRG6LqOoUOH4vjx42H32SZPnowJEyawkSks8FbWMq5q1aoYMmTIBV8vKCiAy+XC2bNnUVBQgEOHDmHHjh3YsmWL4ad2T5w4gXHjxuG5554z9bM1b97c67ZTj8eDc+fO4dy5czh+/DgOHjyI7Oxs6LoekHVOnDgRlStXxs0331xqbdq0aVPUrl27RNdZvnx5fpkYDhROypUrh2bNmvm8nNPpxJIlSzB27FicOHHC5+W//vpr9O7dG+np6aZ9tjZt2qBnz56XfF9eXh42bNiAn3/+GYsXL0Zubq5f633zzTeRkZGB+vXrl0qbtmrVCn369OHOTX7haSUyxG634/rrr8fMmTMNPRSm6zree++9oPgsUVFRuOqqq/Dkk0/i66+/xssvv4waNWoYLs/tdmPo0KG8zZUYDlR2xcbG4t133zV0MF29ejUOHz4cXF1piwWdO3fGrFmzMGDAANhsNkPlHDlyBG+//TZ3EGI4UNlVsWJFvPLKKz6PyqnrOpYsWRKUn0lVVfTp0weTJ0+Gw+EwVMaXX36JzZs3cwchhgOVXZmZmejRo4fPyy1cuDCoP1fNmjUxYcIEQz0jKSXGjBnDnYMYDlS23X333T6fhtm1axeOHTsW1J/L4XBgzJgxiImJ8XnZrKysoB9um4jhQKaKjY1Fy5YtfV4uFAaxq1atGkaMGGFocqBweyqcGA5EPrv66qt9Xuaf8ygEq8aNGxs6dfbLL79g37593DmI4UBll5HbWnfs2BEyn++hhx5CxYoVfVpGSon58+dz5yCGA5VdycnJPp968fehs5IUFRWFO++80+flFi5cGLCnsIkYDhRy/jcnsy9C7WGxHj16IDIy0qdlcnJyeGGaGA5UtvkaDmfOnAmpzxcZGYlOnTr5vNzKlSu5cxDDgcouIYRP73e5XCH3Gbt06eLzMuvXr+fOQQwHKrtOnz7t8y/xUFO/fn2fL0zv27cPOTk53EGI4UBlj67rPg/lHYrDPSuKYuiZDvYeiOFAZVJOTg6klD4t4+s1imDqPfjql19+4U5CDAcqezZt2uTzMklJSSH5WevUqePzMnv27OFOQgwHKnuMjEKalpYWkp81IyMDqqr6tAyflCaGA5U5mqZh2bJlPi9n5mxwZrLZbEhISPBpmdzcXJ8v2BMxHCikLV26FNnZ2T4tY7fbS3y+40CqVq2az8vs37+fOwsxHKhsOHv2LCZMmODzci1atEC5cuVC9nMnJib6vMyhQ4e4w1DQs7AKyF+6rmPYsGGGfhEbGcU1mPj6rAMAn2/19dW6deugaZopZbdo0QK1atXiTs9wILq448eP49VXX8WqVat8XjY6Ohrt27cP6c9vZAIgs8Nh1apVhtqjOKKiohgODAeiC9u+fTu++uorLFiwwPDAebfeemtIPh39z4Dz1blz57gDEcOBgpvH48HBgweLfM3tdiM/Px95eXk4deoU9u3bhx07dmD79u04cOCAX+uNjIzEbbfdFvL15+u0qCXRcyBiOJDf9u3bh5tvvrnE1ztgwABD5+uD7gtk8f0r5Ha7ueNR0OPdSlTirrjiCnTr1i0sPovVai2R3gYRw4HCWrVq1TB06FCfh/UOVkZ6AaF86y4xHIgCLiYmBmPGjEHlypXD5jN5PB6fl4mIiODOQAwHIgCoXr06xo0bhxo1aoTV5zIyURHDgRgORABatWqFadOmhewAexdjZJykUL99l8oG3q1EpqlWrRr69++PDh06hM01hn86efKkz8vEx8ebuk033XQTOnToYErZycnJ3LEZDkQGuqKKgkaNGuHaa6/FtddeG/Z35pw4ccLnZapWrWrqNtWoUQPNmjXjzkgMByo9VqsVNWvWRO3atVG7dm20bNkScXFxZebzX+gBwgt+4SwWOBwO7jjEcKDgFh0dfdFTEKqq/nWOvEKFCoiIiEB8fDwqV66M+Ph4VKpUydC9/uHC1yfFHQ4HFIWX+ojhQEEuLi4OgwYNYkUYcPr0aRw/ftynZYzM/0BUGvgThsigLVu2QErp0zJ169ZlxRHDgSicbd261edl6tWrx4ojhgNROFuzZo1P7xdCMByI4UAUzvLy8pCVleXTMklJSYYmByJiOBCFiO+//97ncZWaNm3KiiOGA1E4mz9/vs/LdOzYkRVHDAeicHXgwAGsX7/ep2ViY2PRqFEjVh4xHIjC1YwZM6Druk/LtG/fng+/EcOBKFwdPnwYCxYs8Hk5nlIihgNRGHv33XfhdDp9WqZWrVo8pUQMB6Jw9cMPP2DZsmU+L3fXXXeF7ZDlxHAgKtOOHDmCl156yeflatSogfbt27MCieFAFG5OnDiBAQMG4NSpU4Z6DbwQTQwHojBz8OBB9O/fH3v27PF52YYNG6JLly6sRGI4EIWTZcuWoW/fvti9e7fPy9psNgwePJi9BgpZnM+B6B82bdqEcePGYd26dYbLuOeeezjfMjEciELdrl27sHr1aixcuBC///67X2U1btwYffv2ZaUSw4EoGGVlZXlNYep2u1FQUIAzZ84gNzcX+/fvx65du5CbmxuQdaakpOD111+HxcKvFjEciILS4sWLsXjx4hJbX0xMDN544w1ER0ez8ink8WoZUQBUqFABY8aMQVJSEiuDGA5EBFSpUgUffPABateuzcoghgMRAZmZmZg0aRLS09NZGRRWeM2ByMivKkXBbbfdhoceegh2u50VQgwHorKubt26GDBgABo0aMDKIIYDUVnXqFEj9OrVC1dffTVHWSWGA1FZlpGRgTZt2qBTp05IS0tjhRDDgagsURQFiYmJSEpKQlpaGi6//HLUq1cPcXFxrBxiOFDoa9CgAYYPH17s90dFRYXMZ3vggQdw8uRJv8ux2+2w2+1QFAWxsbGIiYlBTExM0A6Sd++996J79+7Ffn/NmjX5RSCGA50vISEBCQkJYfnZGjduXCbblFOMUqn0plkFRETEcCAiIoYDERExHIiIiOFAREQMByIiYjgQERHDgYiIGA5ERMRwICIihgMRETEciIiI4UBERAwHIiJiOBAREcOBiIiI4UBERJcOB+lXCVKyFomIgomu+1uCVADk+1OCcBawIYiIgogoOOdvEXkKgDP+FZHHliAiCiZnz/obL6f9D4d8hgMRUVD1HM7l+1mCfkaB8C8cxNEctgQRUTCFQ062nwXgjALIU/6UoezdzZYgIgqmcNi7x98STinQFb+O7mL3LrYEEVGwBMPxYxBnTvtXiMQuBZDb/eo5HNgPnDvHFiEiCgLKjt/9L0SK7QqE2OZXIR431KwNbBEiomAIh7WrA1CKc7sCaNv93pg1P7FFiIiCgLrG73DIFntycxVUOrYLgF9PsqmrV7FFiIhKmcjPg/LbRj8LkVsAQBHr4YaQfv30V7I2Quzfx5YhIirNXsPihYDb7W/EfAf8b+A9KVb4VZaUsHw9jy1DRFSa4TD/C/8LkXL5/8NBwXJ/y7N89XkgBnsiIiIjv/ePHILq/8XofKgVf/5/OCTl/Aw/h9EQe3dDXbGULUREVAqs0ycBmuZvMT+IHTucf4WDWAkPBJb5vXETxrKFiIhKuteQmwvLnE8DUJBY9L///P9kP1J+7G+5yqYsqD98y5YiIipBlinjAzEIqge6/ol3OETGfwnguL+l20YMA1wuthYRUUn0GvbtgXXGlAAUhCViz9EjXuEgNm92QeA/fpe/dzesH01iixERlQDbiJcApzMQMfPR3//v/DmkNUwPxMZax78HZQ8H5CMiMpNlwZdQv18RiKJOo0Cdd8FwEHtzfoLEj36vJj8ftif6AwWcQpSIyAxi3x5Yhw0JUGH4QBw6lH/hngMACDEyEOtS/tgO2+svswWJiALN6YT9yUcg8s4GorQCaPoYr2O419t2Z8+HwC8B6fLMngnrtIlsSCKiQNF12AcNhLJ1c6D6IBPE3mOHLxkOApCQ8rVAfQ7rG8Nh+WIOG5SIKABsr70MdfGCQBXnBpTRRb2gFPn23UfnAGJ9QFYtJWwvDoa64Cu2KhGRP8fS11+B5eOpASxUjBO7D+8tdjgIQIfQHgQQmMGSPG7YnxnAU0xEREZoHtiefxaW6QF9TOAIpPOFC72oXuiFYSfzD71YKSoRQNNAbYn64/cQeXnQWlwBKCobnIjoUr/tTxyH/bF+sCxdFOCCxQNi9/F1F3z5or2YGhVjodq3AYgP5DbpdevD+ca7kEk12PJERBegrF0N+zOPQ+RkB7ro77A7p60A5AXXfdFg2XfqJKR4LOAfeHMWIm67EZY5szjMNxHRP4+9+XmwjnoVEfffYUYwnIWQ918sGC7Zc/irB5EaPx7AA2ZUgn55A7ieewl63frcI4iobJMS6sL5sI0eDpF9xKy19BW7cz66ZEAVa3tTUiIg8n8E0MisrdVatoL7kYHQGzbmDkJEZYuuQ/1+Jazvvw1lc5aZa5ogducU64e+KG6JMi2uJqRYB6CCqXXUrCU83W+B1ulayMgo7jREFLZE9mFYvv4Sls9mQ5g/Ht0mOC0t/jlMht/hAAAy1XEjIOcCsJhea+XKQWvXEdqVraE1bQlZPYl7EhGFfA9B2b4VytrVUFcug7ru55K67noEKq4SO3J2Fju4fF2DTI2/A8B0I8v6Q1ZNhF67LvTkVMiUNMiqiZBR5YHISMiIctzpiCh4egRnzwDn8iHyzkLs2wtlz26IPbugbPkN4tSpkt6c09D1dmLvMZ+GRTJ0gJdpcc9CihHcBYiIgpoLwPVid84SXxdUDKXirqMjAbzBeiciClpuCPQxEgyGew5/9SBS4p6BECNQwqeYiIjoovIhZE+x66jhEfr8PqjLlLi7IcQElMRFaiIiutRh/SQUeYPYmbPKr1ICsSkyOf4mKPgYAK8MExGVnr3Q1evE3sNb/S1ICcTWiL05n0NXmwDYxLYhIioVSwG0CEQwBCwcCgPi8FZEyisAfMw2IiIqMR4IDMPunGvE7sANxGTKhWSZ6rgPkG8BiGa7ERGZZhd03CH25vwU6IIVM7ZW7M6eBF3PBPAR246IKODcgHgH+aK+GcFgWs/hvF5ESkJbKPpYSNRhexIR+XvUliugWR4O1LWFUgsHAJAZGXZop+4HxNMAOMMPEZHvfoYQr4hd2fNLJINK8pPJJrDiRHxvAIMBZLKtiYguaRUgXhO7s78q0Q5KaXxSCahIi+8OKe8CxLUArGx/IqK/5AJyDqQySezJXl0aG1Dqw17IjIQ4aFovAHcCohn3CSIqo9yA/AbAR5BRX4o9ewpKc2OCakwkme6Ih65fDYiOELiKF7GJKIzpENgGiR8AuRTSvUTsyc0Nlo0L6gHzZFpiDcBdDxCXQSITkLUAkQmgIoBI7ltEFAJOAzgG4HcIuQ262A6pbIdm+VUcOHAiWDf6v9OHx4LiljHRAAAAJXRFWHRkYXRlOmNyZWF0ZQAyMDIyLTA4LTAzVDEwOjQ3OjMyKzAwOjAw1L+ZQgAAACV0RVh0ZGF0ZTptb2RpZnkAMjAyMi0wOC0wM1QxMDo0NzozMiswMDowMKXiIf4AAAAASUVORK5CYII=;container=0;labelPosition=center;align=center;" parent="1" vertex="1">
          <mxGeometry x="90" y="371" width="40.73" height="50" as="geometry" />
        </mxCell>
        <mxCell id="GTzW13PCpok3m3NTXm2x-5" value="Output" style="dashed=0;outlineConnect=0;html=1;align=center;labelPosition=center;verticalLabelPosition=bottom;verticalAlign=top;shape=mxgraph.weblogos.json_2" parent="1" vertex="1">
          <mxGeometry x="185" y="570" width="80" height="25.2" as="geometry" />
        </mxCell>
        <mxCell id="GTzW13PCpok3m3NTXm2x-10" style="edgeStyle=orthogonalEdgeStyle;rounded=0;orthogonalLoop=1;jettySize=auto;html=1;entryX=0;entryY=0.5;entryDx=0;entryDy=0;exitX=1;exitY=0.5;exitDx=0;exitDy=0;" parent="1" source="GTzW13PCpok3m3NTXm2x-8" target="8SS_QkGXYisFhr5MhX2D-36" edge="1">
          <mxGeometry relative="1" as="geometry" />
        </mxCell>
        <mxCell id="GTzW13PCpok3m3NTXm2x-8" value="Resume(Text)" style="shape=document;whiteSpace=wrap;html=1;boundedLbl=1;fillColor=none;" parent="1" vertex="1">
          <mxGeometry x="70.37" y="470" width="80" height="50" as="geometry" />
        </mxCell>
        <mxCell id="GTzW13PCpok3m3NTXm2x-14" style="edgeStyle=orthogonalEdgeStyle;rounded=0;orthogonalLoop=1;jettySize=auto;html=1;entryX=1;entryY=0.5;entryDx=0;entryDy=0;" parent="1" source="GTzW13PCpok3m3NTXm2x-11" target="8SS_QkGXYisFhr5MhX2D-36" edge="1">
          <mxGeometry relative="1" as="geometry" />
        </mxCell>
        <mxCell id="GTzW13PCpok3m3NTXm2x-11" value="System Message" style="shape=document;whiteSpace=wrap;html=1;boundedLbl=1;fillColor=none;" parent="1" vertex="1">
          <mxGeometry x="310" y="470" width="80" height="50" as="geometry" />
        </mxCell>
      </root>
    </mxGraphModel>
  </diagram>
</mxfile>
